<svg xmlns="http://www.w3.org/2000/svg" width="1687" height="329" fill="none"><path d="M0-329h1687V0H0z" style="opacity:.996;fill:#fff;stroke:#646464;stroke-width:0" transform="scale(1 -1)"/><path fill="#000" d="M666.707 115.707a1 1 0 0 0 0-1.414l-6.364-6.364a.999.999 0 1 0-1.414 1.414l5.657 5.657-5.657 5.657a.999.999 0 1 0 1.414 1.414zM402 116h264v-2H402ZM1283.71 116.707a1 1 0 0 0 0-1.414l-6.37-6.364a.994.994 0 0 0-1.41 0 1 1 0 0 0 0 1.414l5.66 5.657-5.66 5.657a1 1 0 0 0 0 1.414.994.994 0 0 0 1.41 0zM1019 117h264v-2h-264z"/><path fill="#fff" stroke="#000" stroke-width="2" d="M51 51h351v130H51z" style="fill:none"/><path fill="#000" d="M155.308 92V71.636h2.466v10.103h.238l9.148-10.103h3.222l-8.552 9.188L170.382 92h-2.983l-7.08-9.466-2.545 2.864V92Zm31.629-20.364h2.466v13.483q0 2.088-.984 3.729-.975 1.631-2.755 2.575-1.779.935-4.176.935-2.396 0-4.176-.935-1.78-.944-2.764-2.575-.975-1.641-.975-3.729V71.636h2.466V84.92q0 1.492.656 2.655a4.7 4.7 0 0 0 1.87 1.82q1.223.656 2.923.656t2.923-.656q1.224-.666 1.87-1.82.656-1.163.656-2.655zm-8.313-2.545q-.626 0-1.113-.477-.477-.487-.477-1.114 0-.686.477-1.134.487-.457 1.113-.457.687 0 1.134.457.457.448.457 1.134 0 .627-.457 1.114-.447.477-1.134.477m5.728 0q-.627 0-1.114-.477-.477-.487-.477-1.114 0-.686.477-1.134.487-.457 1.114-.457.686 0 1.133.457.458.448.458 1.134 0 .627-.458 1.114a1.49 1.49 0 0 1-1.133.477m26.123 2.545V92h-2.386l-11.097-15.989h-.199V92h-2.466V71.636h2.387l11.136 16.029h.199V71.636Zm16.071 5.091q-.18-1.51-1.452-2.346t-3.122-.836q-1.353 0-2.367.438-1.004.438-1.571 1.203a2.9 2.9 0 0 0-.557 1.74q0 .816.388 1.402.397.577 1.014.965.617.377 1.293.626.676.238 1.243.388l2.068.557q.795.209 1.77.576.984.368 1.879 1.005a5.1 5.1 0 0 1 1.492 1.61q.586.985.586 2.417 0 1.65-.865 2.983-.855 1.332-2.505 2.117-1.64.786-3.988.786-2.187 0-3.788-.706-1.591-.706-2.506-1.969-.904-1.263-1.024-2.933h2.546q.1 1.153.775 1.909.686.745 1.73 1.114a7 7 0 0 0 2.267.358q1.413 0 2.536-.458 1.123-.467 1.78-1.292.656-.836.656-1.949 0-1.015-.567-1.651t-1.491-1.034a16 16 0 0 0-1.999-.696l-2.505-.716q-2.387-.686-3.779-1.959-1.392-1.272-1.392-3.331 0-1.71.925-2.983.934-1.282 2.505-1.988 1.581-.716 3.53-.716 1.969 0 3.5.706 1.532.696 2.426 1.909a4.75 4.75 0 0 1 .955 2.754zm5.605-2.903v-2.188h15.273v2.188h-6.404V92h-2.465V73.824ZM251.23 92V71.636h2.465v18.176h9.466V92Zm15.75 0V71.636h12.289v2.188h-9.824v6.881h9.188v2.187h-9.188v6.92h9.983V92Zm16.734 0V71.636h6.881q2.386 0 3.917.816 1.532.805 2.267 2.217.736 1.412.736 3.212 0 1.799-.736 3.191t-2.257 2.188q-1.521.785-3.888.785h-5.568v-2.227h5.489q1.63 0 2.625-.477 1.003-.477 1.452-1.352.457-.885.457-2.108t-.457-2.138q-.458-.915-1.462-1.412-1.005-.507-2.655-.507h-4.335V92Zm9.585-9.148L298.311 92h-2.864l-4.932-9.148zm-160.047 32.966q0-3.759.975-6.91a21.6 21.6 0 0 1 2.804-5.817h2.068q-.716.984-1.342 2.426a23.6 23.6 0 0 0-1.084 3.152 30 30 0 0 0-.736 3.54 26 26 0 0 0-.258 3.609q0 2.367.457 4.803a27.6 27.6 0 0 0 1.233 4.524q.776 2.088 1.73 3.4h-2.068a21.6 21.6 0 0 1-2.804-5.806q-.975-3.162-.975-6.921M142.88 126v-20.364h6.881q2.396 0 3.917.865 1.532.856 2.267 2.317.736 1.462.736 3.262 0 1.799-.736 3.271-.726 1.471-2.247 2.346-1.52.865-3.898.865h-4.931v-2.187h4.852q1.64 0 2.635-.567t1.442-1.531q.457-.975.457-2.197 0-1.224-.457-2.188-.448-.965-1.452-1.511-1.005-.557-2.665-.557h-4.335V126Zm17.773 0v-20.364h6.881q2.387 0 3.918.816 1.531.805 2.267 2.217t.736 3.212q0 1.799-.736 3.191t-2.257 2.188q-1.522.785-3.888.785h-5.568v-2.227h5.488q1.63 0 2.625-.477 1.005-.477 1.452-1.352.457-.885.457-2.108t-.457-2.138-1.462-1.412q-1.004-.507-2.654-.507h-4.336V126Zm9.586-9.148L175.25 126h-2.864l-4.931-9.148zm25.506-1.034q0 3.222-1.163 5.568-1.163 2.347-3.192 3.62-2.028 1.272-4.633 1.272t-4.634-1.272-3.192-3.62q-1.163-2.346-1.163-5.568t1.163-5.568 3.192-3.619q2.028-1.273 4.634-1.273 2.605 0 4.633 1.273t3.192 3.619 1.163 5.568m-2.386 0q0-2.645-.885-4.464-.875-1.82-2.376-2.755-1.492-.934-3.341-.934t-3.351.934q-1.492.936-2.377 2.755-.875 1.82-.875 4.464t.875 4.465q.885 1.82 2.377 2.754 1.501.935 3.351.935 1.849 0 3.341-.935 1.501-.934 2.376-2.754.885-1.82.885-4.465M206.176 126h-6.284v-20.364h6.562q2.964 0 5.071 1.223 2.109 1.213 3.232 3.49 1.123 2.268 1.123 5.429 0 3.183-1.133 5.479-1.134 2.287-3.301 3.52-2.168 1.223-5.27 1.223m-3.818-2.188h3.659q2.525 0 4.186-.974 1.66-.975 2.476-2.774.815-1.8.815-4.286 0-2.466-.805-4.245-.805-1.79-2.407-2.745-1.6-.964-3.987-.964h-3.937zm31.022-18.176h2.466v13.483q0 2.088-.984 3.729-.975 1.631-2.754 2.575-1.78.935-4.177.935t-4.176-.935q-1.78-.944-2.764-2.575-.974-1.641-.974-3.729v-13.483h2.466v13.284q0 1.492.656 2.655a4.7 4.7 0 0 0 1.869 1.82q1.224.656 2.923.656t2.924-.656q1.222-.666 1.869-1.82.656-1.163.656-2.655zM240.094 126v-1.79l10.978-16.386h-11.097v-2.188h14.04v1.79l-10.977 16.386h11.096V126Zm18.177 0v-20.364h12.289v2.188h-9.823v6.881h9.187v2.187h-9.187v6.92h9.982V126Zm32.882-20.364V126h-2.387l-11.096-15.989h-.199V126h-2.466v-20.364h2.386l11.137 16.029h.199v-16.029zm3.82 2.188v-2.188h15.273v2.188h-6.403V126h-2.466v-18.176zm23.772 7.994q0 3.759-.984 6.921a21.4 21.4 0 0 1-2.794 5.806h-2.069q.717-.984 1.333-2.426a23 23 0 0 0 1.094-3.142q.467-1.72.725-3.549.269-1.84.269-3.61 0-2.366-.457-4.802a27.7 27.7 0 0 0-1.233-4.525q-.776-2.088-1.731-3.4h2.069a21.4 21.4 0 0 1 2.794 5.817q.984 3.151.984 6.91m-176.168 34q0-3.759.974-6.91a21.6 21.6 0 0 1 2.804-5.817h2.068q-.715.984-1.342 2.426a24 24 0 0 0-1.084 3.152 30 30 0 0 0-.736 3.54 26 26 0 0 0-.258 3.609q0 2.367.457 4.803a27.6 27.6 0 0 0 1.233 4.524q.776 2.088 1.73 3.4h-2.068a21.6 21.6 0 0 1-2.804-5.806q-.974-3.162-.974-6.921M152.204 160v-20.364h12.29v2.188h-9.824v6.881h9.188v2.187h-9.188v6.92h9.983V160Zm17.928-20.364 5.25 8.472h.159l5.25-8.472h2.903l-6.403 10.182L183.694 160h-2.903l-5.25-8.312h-.159l-5.25 8.312h-2.904l6.563-10.182-6.563-10.182zM186.903 160v-20.364h6.881q2.397 0 3.918.865 1.531.855 2.267 2.317t.736 3.262-.736 3.271q-.726 1.471-2.247 2.346-1.522.865-3.898.865h-4.932v-2.187h4.852q1.64 0 2.635-.567t1.442-1.531q.457-.975.457-2.197 0-1.224-.457-2.188-.447-.965-1.452-1.511-1.004-.558-2.664-.557h-4.336V160Zm17.774 0v-20.364h12.29v2.188h-9.824v6.881h9.187v2.187h-9.187v6.92h9.983V160Zm23.018 0h-6.284v-20.364h6.563q2.962 0 5.071 1.223 2.107 1.213 3.231 3.49 1.124 2.268 1.124 5.429 0 3.183-1.134 5.479-1.133 2.287-3.301 3.52-2.168 1.223-5.27 1.223m-3.818-2.188h3.659q2.526 0 4.186-.974 1.661-.975 2.476-2.774.816-1.8.815-4.286 0-2.466-.805-4.245-.805-1.79-2.406-2.745-1.6-.964-3.987-.964h-3.938zm20.125-18.176V160h-2.466v-20.364ZM248.946 160v-20.364h12.29v2.188h-9.824v6.881h9.188v2.187h-9.188v6.92h9.983V160Zm32.882-20.364V160h-2.386l-11.096-15.989h-.199V160h-2.466v-20.364h2.386l11.136 16.029h.199v-16.029zm3.821 2.188v-2.188h15.273v2.188h-6.404V160h-2.465v-18.176zm23.772 7.994q0 3.759-.985 6.921a21.3 21.3 0 0 1-2.794 5.806h-2.068q.716-.984 1.333-2.426.626-1.431 1.093-3.142.468-1.72.726-3.549.269-1.84.269-3.61a26 26 0 0 0-.458-4.802 27.7 27.7 0 0 0-1.233-4.525q-.775-2.088-1.73-3.4h2.068a21.3 21.3 0 0 1 2.794 5.817q.985 3.151.985 6.91"/><path fill="#fff" stroke="#000" stroke-width="2" d="M668 51h351v130H668z" style="fill:none"/><path fill="#000" d="M808.794 81.818q0 3.222-1.163 5.568-1.164 2.347-3.192 3.62-2.029 1.272-4.633 1.272-2.606 0-4.634-1.272t-3.192-3.62q-1.163-2.346-1.163-5.568t1.163-5.568 3.192-3.619 4.634-1.273 4.633 1.273 3.192 3.619 1.163 5.568m-2.386 0q0-2.645-.885-4.464-.875-1.82-2.377-2.755-1.49-.934-3.34-.934t-3.351.934q-1.492.936-2.377 2.755-.875 1.82-.875 4.464t.875 4.465q.885 1.82 2.377 2.754 1.501.935 3.351.935t3.34-.935q1.502-.934 2.377-2.754.885-1.82.885-4.465M812.941 92V71.636h7.119q2.127 0 3.51.736 1.381.726 2.058 1.959.676 1.223.676 2.714 0 1.313-.467 2.168a3.6 3.6 0 0 1-1.213 1.352 5.5 5.5 0 0 1-1.621.736v.199q.935.06 1.879.656.945.597 1.581 1.71.636 1.114.637 2.725 0 1.532-.696 2.754-.696 1.224-2.198 1.939-1.501.716-3.908.716zm2.465-2.188h4.892q2.417 0 3.431-.934 1.024-.945 1.024-2.287 0-1.034-.527-1.909-.527-.885-1.501-1.412-.975-.537-2.307-.537h-5.012zm0-9.227h4.574q1.114 0 2.009-.437a3.5 3.5 0 0 0 1.432-1.233q.537-.796.537-1.87 0-1.341-.935-2.277-.935-.944-2.963-.944h-4.654zm23.541-8.949h2.466v14.557q0 1.949-.716 3.311-.716 1.363-2.019 2.068-1.302.706-3.072.706-1.671 0-2.973-.606-1.302-.616-2.048-1.75t-.746-2.695h2.426q0 .866.428 1.512.437.636 1.193.994t1.72.358q1.064 0 1.81-.448.746-.447 1.133-1.312.398-.875.398-2.138zM846.355 92V71.636h12.289v2.188h-9.824v6.881h9.188v2.187h-9.188v6.92h9.983V92Zm16.734 0V71.636h2.466v10.103h.239l9.147-10.103h3.222l-8.551 9.188L878.163 92h-2.983l-7.08-9.466-2.545 2.864V92Zm17.152-18.176v-2.188h15.273v2.188h-6.404V92h-2.466V73.824Zm-135.963 41.994q0-3.759.974-6.91a21.6 21.6 0 0 1 2.804-5.817h2.068q-.715.984-1.342 2.426a24 24 0 0 0-1.084 3.152 30 30 0 0 0-.735 3.54 26 26 0 0 0-.259 3.609q0 2.367.457 4.803a27.6 27.6 0 0 0 1.233 4.524q.776 2.088 1.73 3.4h-2.068a21.6 21.6 0 0 1-2.804-5.806q-.974-3.162-.974-6.921M754.741 126h-2.586l7.478-20.364h2.545L769.655 126h-2.585l-6.085-17.142h-.159zm.954-7.955h10.421v2.188h-10.421zm2.347-14.954q-.627 0-1.114-.477-.477-.487-.477-1.114 0-.685.477-1.134.487-.456 1.114-.457.686 0 1.133.457.458.449.458 1.134 0 .627-.458 1.114a1.49 1.49 0 0 1-1.133.477m5.727 0q-.627 0-1.114-.477-.477-.487-.477-1.114 0-.685.477-1.134.487-.456 1.114-.457.686 0 1.134.457.457.449.457 1.134 0 .627-.457 1.114a1.5 1.5 0 0 1-1.134.477m20.195 7.636q-.18-1.51-1.452-2.346t-3.122-.836q-1.353 0-2.367.438-1.004.438-1.571 1.203a2.9 2.9 0 0 0-.557 1.74q0 .816.388 1.402.398.577 1.014.965.616.377 1.293.626.676.238 1.243.388l2.068.557q.795.208 1.77.576.984.368 1.879 1.005a5.1 5.1 0 0 1 1.492 1.61q.586.985.586 2.417 0 1.65-.865 2.983-.855 1.332-2.505 2.117-1.64.786-3.988.786-2.187 0-3.788-.706-1.591-.706-2.506-1.969-.904-1.263-1.024-2.933h2.546q.1 1.153.775 1.909.687.745 1.73 1.114a7 7 0 0 0 2.267.358q1.413 0 2.536-.458 1.123-.467 1.78-1.292.656-.836.656-1.949 0-1.014-.567-1.651-.567-.636-1.491-1.034a16 16 0 0 0-1.999-.696l-2.505-.716q-2.387-.685-3.779-1.959-1.392-1.272-1.392-3.331 0-1.71.925-2.983.935-1.282 2.505-1.988 1.581-.716 3.53-.716 1.969 0 3.5.706 1.532.696 2.426 1.909a4.75 4.75 0 0 1 .955 2.754zm5.605-2.903v-2.188h15.273v2.188h-6.404V126h-2.466v-18.176ZM808.648 126v-20.364h2.465v9.069h10.858v-9.069h2.466V126h-2.466v-9.108h-10.858V126Zm20.726 0v-20.364h12.29v2.188h-9.824v6.881h9.188v2.187h-9.188v6.92h9.983V126Zm15.621-18.176v-2.188h15.273v2.188h-6.404V126h-2.466v-18.176zm21.544-2.188V126h-2.466v-20.364zm16.081 5.091q-.178-1.51-1.452-2.346-1.272-.836-3.122-.836-1.353 0-2.366.438-1.005.438-1.572 1.203a2.9 2.9 0 0 0-.556 1.74q0 .816.387 1.402.399.577 1.015.965.617.377 1.292.626.676.238 1.243.388l2.068.557q.797.209 1.77.576.984.368 1.879 1.005a5.1 5.1 0 0 1 1.492 1.61q.587.985.587 2.417 0 1.65-.865 2.983-.856 1.332-2.506 2.117-1.641.786-3.987.786-2.188 0-3.789-.706-1.59-.706-2.505-1.969-.906-1.263-1.025-2.933h2.546q.1 1.153.776 1.909.686.745 1.73 1.114a7 7 0 0 0 2.267.358q1.411 0 2.535-.458 1.124-.467 1.78-1.292.656-.836.656-1.949 0-1.015-.567-1.651-.566-.636-1.491-1.034a16 16 0 0 0-1.999-.696l-2.505-.716q-2.387-.686-3.779-1.959-1.392-1.272-1.392-3.331 0-1.71.925-2.983.934-1.282 2.506-1.988 1.58-.716 3.53-.716 1.968 0 3.5.706 1.53.696 2.426 1.909.905 1.213.954 2.754zM905.725 112h-2.466a5.1 5.1 0 0 0-.765-1.869 5.1 5.1 0 0 0-1.313-1.353 5.6 5.6 0 0 0-1.7-.835 6.8 6.8 0 0 0-1.949-.278q-1.85 0-3.351.934-1.491.936-2.376 2.755-.875 1.82-.875 4.464t.875 4.465q.885 1.82 2.376 2.754 1.502.935 3.351.935 1.014 0 1.949-.279a5.7 5.7 0 0 0 1.7-.825 5.2 5.2 0 0 0 1.313-1.362q.547-.816.765-1.87h2.466q-.278 1.561-1.014 2.794a7.6 7.6 0 0 1-1.829 2.098 8 8 0 0 1-2.456 1.303 9.2 9.2 0 0 1-2.894.447q-2.605 0-4.633-1.272-2.03-1.273-3.192-3.62-1.163-2.346-1.163-5.568t1.163-5.568 3.192-3.619 4.633-1.273q1.542 0 2.894.447a7.9 7.9 0 0 1 2.456 1.313 7.5 7.5 0 0 1 1.829 2.088q.736 1.223 1.014 2.794m3.985 14v-20.364h2.466v9.069h10.858v-9.069h2.466V126h-2.466v-9.108h-10.858V126Zm20.727 0v-20.364h12.289v2.188h-9.823v6.881h9.187v2.187h-9.187v6.92h9.982V126Zm-184.279 13.636V160h-2.466v-20.364zm21.092 0V160h-2.386l-11.097-15.989h-.198V160h-2.466v-20.364h2.386l11.136 16.029h.199v-16.029ZM772.185 160v-20.364h12.21v2.188h-9.744v6.881h8.829v2.187h-8.829V160Zm33.615-10.182q0 3.222-1.163 5.568-1.164 2.347-3.192 3.62-2.028 1.272-4.634 1.272-2.604 0-4.633-1.272t-3.192-3.62q-1.163-2.346-1.163-5.568t1.163-5.568 3.192-3.619 4.633-1.273q2.606 0 4.634 1.273t3.192 3.619 1.163 5.568m-2.386 0q0-2.645-.885-4.464-.876-1.82-2.377-2.755-1.491-.934-3.341-.934-1.849 0-3.35.934-1.492.936-2.377 2.755-.875 1.82-.875 4.464t.875 4.465q.885 1.82 2.377 2.754 1.501.935 3.35.935t3.341-.935q1.501-.934 2.377-2.754.885-1.82.885-4.465M809.946 160v-20.364h6.881q2.387 0 3.918.816 1.531.805 2.267 2.217t.736 3.212-.736 3.191-2.257 2.188q-1.523.786-3.888.785h-5.568v-2.227h5.488q1.63 0 2.625-.477 1.005-.477 1.452-1.352.457-.885.457-2.108t-.457-2.138-1.462-1.412q-1.004-.507-2.654-.507h-4.336V160Zm9.586-9.148 5.011 9.148h-2.864l-4.931-9.148zm8.325-11.216h2.943l6.92 16.904h.239l6.92-16.904h2.943V160h-2.306v-15.472h-.199L838.953 160h-2.227l-6.364-15.472h-.199V160h-2.306zM853.602 160h-2.585l7.477-20.364h2.545L868.517 160h-2.586l-6.085-17.142h-.159zm.954-7.955h10.421v2.188h-10.421zm13.64-10.221v-2.188h15.273v2.188h-6.404V160h-2.466v-18.176zm21.544-2.188V160h-2.465v-20.364zm22.126 10.182q0 3.222-1.163 5.568-1.163 2.347-3.192 3.62-2.028 1.272-4.633 1.272t-4.634-1.272q-2.028-1.273-3.191-3.62-1.164-2.346-1.164-5.568t1.164-5.568 3.191-3.619q2.029-1.273 4.634-1.273t4.633 1.273q2.03 1.273 3.192 3.619t1.163 5.568m-2.386 0q0-2.644-.885-4.464-.874-1.82-2.376-2.755-1.492-.934-3.341-.934t-3.351.934q-1.491.936-2.376 2.755-.875 1.82-.875 4.464t.875 4.465q.885 1.82 2.376 2.754 1.501.935 3.351.935 1.849 0 3.341-.935 1.502-.935 2.376-2.754.885-1.82.885-4.465m22.681-10.182V160h-2.387l-11.096-15.989h-.199V160h-2.466v-20.364h2.386l11.137 16.029h.198v-16.029zm9.627 10.182q0 3.759-.984 6.921a21.4 21.4 0 0 1-2.794 5.806h-2.069q.717-.984 1.333-2.426a23 23 0 0 0 1.094-3.142q.467-1.72.725-3.549.269-1.84.269-3.61a26 26 0 0 0-.458-4.802 27.6 27.6 0 0 0-1.232-4.525q-.776-2.088-1.731-3.4h2.069a21.4 21.4 0 0 1 2.794 5.817q.984 3.151.984 6.91"/><path fill="#fff" stroke="#000" stroke-width="2" d="M1285 51h351v130h-351z" style="fill:none"/><path fill="#000" d="m1354.77 92-5.57-20.364h2.51l4.25 16.586h.2l4.34-16.586h2.78l4.33 16.586h.2l4.26-16.586h2.51L1369.01 92h-2.55l-4.49-16.227h-.16L1357.31 92Zm22.88 0V71.636h12.29v2.188h-9.83v6.881h9.19v2.187h-9.19v6.92h9.99V92Zm16.73 0V71.636h6.88c1.59 0 2.9.272 3.92.816 1.02.537 1.78 1.276 2.27 2.217s.73 2.012.73 3.212c0 1.199-.24 2.263-.73 3.191s-1.25 1.658-2.26 2.188c-1.01.524-2.31.785-3.89.785h-5.57v-2.227h5.49c1.09 0 1.96-.159 2.63-.477s1.15-.769 1.45-1.352c.3-.59.46-1.293.46-2.108s-.16-1.528-.46-2.138c-.31-.61-.79-1.081-1.46-1.412-.67-.338-1.56-.507-2.66-.507h-4.33V92Zm9.59-9.148 5.01 9.148h-2.87l-4.93-9.148zm7.21-9.028v-2.188h15.27v2.188h-6.4V92h-2.47V73.824Zm30.21 2.903c-.12-1.007-.6-1.789-1.45-2.346q-1.275-.836-3.12-.836-1.35 0-2.37.438c-.67.292-1.19.693-1.57 1.203-.37.51-.55 1.091-.55 1.74 0 .544.12 1.011.38 1.402q.405.577 1.02.965.615.377 1.29.626c.45.159.86.288 1.24.388l2.07.557q.795.209 1.77.576c.66.246 1.28.58 1.88 1.005.6.417 1.1.954 1.49 1.61s.59 1.462.59 2.417q0 1.65-.87 2.983c-.57.888-1.4 1.594-2.5 2.117q-1.65.786-3.99.786c-1.46 0-2.72-.235-3.79-.706-1.06-.471-1.89-1.127-2.5-1.969s-.95-1.819-1.03-2.933h2.55c.06.769.32 1.405.77 1.909.46.497 1.04.868 1.73 1.114.71.238 1.46.358 2.27.358.94 0 1.79-.153 2.54-.458.74-.311 1.34-.742 1.78-1.292.43-.557.65-1.207.65-1.949q0-1.014-.57-1.651c-.37-.424-.87-.769-1.49-1.034-.61-.265-1.28-.497-2-.696l-2.5-.716q-2.385-.685-3.78-1.959c-.93-.848-1.39-1.958-1.39-3.331 0-1.14.31-2.134.92-2.983.63-.855 1.46-1.517 2.51-1.988 1.05-.477 2.23-.716 3.53-.716 1.31 0 2.48.235 3.5.706q1.53.696 2.43 1.909c.6.809.92 1.727.95 2.754zM1464.5 78h-2.47a5.1 5.1 0 0 0-2.08-3.222 5.5 5.5 0 0 0-1.7-.835 6.8 6.8 0 0 0-1.94-.278c-1.24 0-2.35.311-3.36.934q-1.485.936-2.37 2.755c-.59 1.213-.88 2.701-.88 4.464s.29 3.252.88 4.465q.885 1.82 2.37 2.754c1.01.623 2.12.935 3.36.935.67 0 1.32-.093 1.94-.279a5.6 5.6 0 0 0 1.7-.825q.78-.556 1.32-1.362c.36-.544.62-1.167.76-1.87h2.47c-.19 1.041-.52 1.972-1.02 2.794a7.7 7.7 0 0 1-1.82 2.098 8 8 0 0 1-2.46 1.303c-.9.298-1.87.447-2.89.447-1.74 0-3.29-.424-4.64-1.272s-2.41-2.055-3.19-3.62-1.16-3.42-1.16-5.568.38-4.004 1.16-5.568 1.84-2.771 3.19-3.619 2.9-1.273 4.64-1.273c1.02 0 1.99.149 2.89.447q1.365.448 2.46 1.313c.72.57 1.33 1.266 1.82 2.088.5.815.83 1.747 1.02 2.794m3.98 14V71.636h2.47v9.069h10.86v-9.069h2.46V92h-2.46v-9.108h-10.86V92Zm21.57 0h-2.59l7.48-20.364h2.54L1504.96 92h-2.59l-6.08-17.142h-.16zm.95-7.955h10.42v2.188H1491Zm2.35-14.954c-.42 0-.79-.159-1.12-.477a1.53 1.53 0 0 1-.47-1.114c0-.457.15-.835.47-1.134.33-.304.7-.457 1.12-.457.45 0 .83.153 1.13.457.3.299.46.677.46 1.134 0 .418-.16.789-.46 1.114-.3.318-.68.477-1.13.477m5.72 0c-.41 0-.79-.159-1.11-.477q-.48-.487-.48-1.114 0-.685.48-1.134c.32-.304.7-.457 1.11-.457q.69 0 1.14.457.45.449.45 1.134 0 .627-.45 1.114-.45.477-1.14.477m5.57 4.733v-2.188h15.27v2.188h-6.4V92h-2.47V73.824ZM1523.04 92v-1.79l10.98-16.386h-11.1v-2.188h14.04v1.79l-10.98 16.386h11.1V92Zm18.18 0V71.636h12.29v2.188h-9.83v6.881h9.19v2.187h-9.19v6.92h9.99V92Zm16.73 0V71.636h6.88c1.59 0 2.9.272 3.92.816 1.02.537 1.78 1.276 2.27 2.217s.73 2.012.73 3.212c0 1.199-.24 2.263-.73 3.191s-1.25 1.658-2.26 2.188c-1.01.524-2.31.785-3.89.785h-5.57v-2.227h5.49c1.09 0 1.97-.159 2.63-.477.67-.318 1.15-.769 1.45-1.352.3-.59.46-1.293.46-2.108s-.16-1.528-.46-2.138c-.31-.61-.79-1.081-1.46-1.412-.67-.338-1.56-.507-2.66-.507h-4.33V92Zm9.59-9.148 5.01 9.148h-2.86l-4.94-9.148zm-254.41 32.966c0-2.506.32-4.809.97-6.91a21.5 21.5 0 0 1 2.81-5.817h2.06c-.47.656-.92 1.465-1.34 2.426q-.615 1.432-1.08 3.152a30 30 0 0 0-.74 3.54c-.17 1.22-.26 2.423-.26 3.609 0 1.578.16 3.179.46 4.803q.465 2.436 1.23 4.524c.52 1.392 1.1 2.525 1.73 3.4h-2.06a21.5 21.5 0 0 1-2.81-5.806c-.65-2.108-.97-4.415-.97-6.921m9.62 10.182v-20.364h2.47v10.103h.24l9.15-10.103h3.22l-8.55 9.188 8.55 11.176h-2.98l-7.08-9.466-2.55 2.864V126Zm18.27 0v-20.364h6.88c1.59 0 2.9.272 3.92.816 1.02.537 1.78 1.276 2.27 2.217s.73 2.012.73 3.212c0 1.199-.24 2.263-.73 3.191s-1.25 1.658-2.26 2.188c-1.02.524-2.31.785-3.89.785h-5.57v-2.227h5.49c1.09 0 1.96-.159 2.63-.477s1.15-.769 1.45-1.352c.3-.59.46-1.293.46-2.108s-.16-1.528-.46-2.138c-.31-.61-.79-1.081-1.46-1.412-.67-.338-1.56-.507-2.66-.507h-4.33V126Zm9.59-9.148 5.01 9.148h-2.87l-4.93-9.148zm10.79-11.216V126h-2.47v-20.364zm3.83 2.188v-2.188h15.27v2.188h-6.4V126h-2.47v-18.176zm21.54-2.188V126h-2.46v-20.364zm4.95 20.364v-20.364h2.46v10.103h.24l9.15-10.103h3.22l-8.55 9.188 8.55 11.176h-2.98l-7.08-9.466-2.55 2.864V126Zm18.26 0v-20.364h12.29v2.188h-9.82v6.881h9.18v2.187h-9.18v6.92h9.98V126Zm16.74 0v-20.364h6.88c1.59 0 2.89.272 3.91.816 1.03.537 1.78 1.276 2.27 2.217s.74 2.012.74 3.212c0 1.199-.25 2.263-.74 3.191s-1.24 1.658-2.26 2.188c-1.01.524-2.31.785-3.88.785h-5.57v-2.227h5.49c1.08 0 1.96-.159 2.62-.477.67-.318 1.16-.769 1.45-1.352.31-.59.46-1.293.46-2.108s-.15-1.528-.46-2.138c-.3-.61-.79-1.081-1.46-1.412-.67-.338-1.55-.507-2.65-.507h-4.34V126Zm9.58-9.148 5.01 9.148h-2.86l-4.93-9.148zm11.51 6.364-.16 1.074c-.11.755-.29 1.564-.52 2.426-.22.862-.46 1.674-.7 2.436-.25.762-.45 1.369-.61 1.82h-1.79c.09-.425.2-.985.34-1.681q.21-1.044.42-2.336c.14-.856.26-1.731.35-2.625l.12-1.114zm12.54 2.784v-20.364h6.88c1.6 0 2.9.289 3.92.865 1.02.57 1.77 1.343 2.26 2.317s.74 2.062.74 3.262c0 1.199-.25 2.29-.74 3.271-.48.981-1.23 1.763-2.24 2.346q-1.53.865-3.9.865h-4.93v-2.187h4.85c1.09 0 1.97-.189 2.63-.567.67-.378 1.15-.888 1.45-1.531q.45-.975.45-2.197 0-1.224-.45-2.188c-.3-.643-.79-1.147-1.46-1.511-.66-.372-1.55-.557-2.66-.557h-4.34V126Zm31.14-20.364h2.46v13.483c0 1.392-.33 2.635-.98 3.729q-.975 1.631-2.76 2.575c-1.18.623-2.58.935-4.17.935-1.6 0-2.99-.312-4.18-.935q-1.785-.944-2.76-2.575c-.65-1.094-.98-2.337-.98-3.729v-13.483h2.47v13.284c0 .995.22 1.88.65 2.655a4.7 4.7 0 0 0 1.87 1.82c.82.437 1.79.656 2.93.656 1.13 0 2.1-.219 2.92-.656.82-.444 1.44-1.051 1.87-1.82q.66-1.163.66-2.655zm7.39 20.364v-20.364h7.12q2.115 0 3.51.736c.92.484 1.6 1.137 2.05 1.959.45.815.68 1.72.68 2.714 0 .875-.16 1.598-.47 2.168-.3.57-.71 1.021-1.21 1.352q-.75.498-1.62.736v.199c.62.04 1.25.259 1.88.656.63.398 1.15.968 1.58 1.71.42.743.64 1.651.64 2.725 0 1.021-.24 1.939-.7 2.754-.46.816-1.2 1.462-2.2 1.939s-2.3.716-3.91.716zm2.46-2.188h4.89c1.61 0 2.76-.311 3.43-.934.69-.63 1.03-1.392 1.03-2.287 0-.689-.18-1.326-.53-1.909q-.525-.885-1.5-1.412-.975-.537-2.31-.537h-5.01zm0-9.227h4.58c.74 0 1.41-.146 2-.437a3.55 3.55 0 0 0 1.44-1.233c.35-.531.53-1.154.53-1.87q0-1.341-.93-2.277c-.62-.629-1.61-.944-2.96-.944h-4.66zM1517.09 126v-20.364h2.46v18.176h9.47V126Zm18.21-20.364V126h-2.46v-20.364zm4.95 20.364v-20.364h2.46v10.103h.24l9.15-10.103h3.22l-8.55 9.188 8.55 11.176h-2.98l-7.08-9.466-2.55 2.864V126Zm31.63-20.364h2.46v13.483c0 1.392-.33 2.635-.98 3.729q-.975 1.631-2.76 2.575-1.77.935-4.17.935c-1.6 0-2.99-.312-4.18-.935q-1.785-.944-2.76-2.575c-.65-1.094-.98-2.337-.98-3.729v-13.483h2.47v13.284c0 .995.22 1.88.65 2.655a4.8 4.8 0 0 0 1.87 1.82c.82.437 1.79.656 2.93.656 1.13 0 2.11-.219 2.92-.656.82-.444 1.44-1.051 1.87-1.82q.66-1.163.66-2.655zm7.39 0h2.94l6.92 16.904h.24l6.92-16.904h2.94V126h-2.3v-15.472h-.2L1590.36 126h-2.22l-6.37-15.472h-.2V126h-2.3zm29.6 10.182c0 2.506-.33 4.813-.98 6.921a21.5 21.5 0 0 1-2.8 5.806h-2.07c.48-.656.92-1.465 1.34-2.426.41-.954.78-2.002 1.09-3.142.31-1.147.55-2.33.73-3.549.17-1.227.26-2.43.26-3.61q0-2.366-.45-4.802a28 28 0 0 0-1.24-4.525c-.51-1.392-1.09-2.525-1.73-3.4h2.07a21.5 21.5 0 0 1 2.8 5.817c.65 2.101.98 4.404.98 6.91m-234.18 34c0-2.506.33-4.809.98-6.91a21.5 21.5 0 0 1 2.8-5.817h2.07c-.48.656-.93 1.465-1.34 2.426a23.6 23.6 0 0 0-1.09 3.152c-.31 1.14-.55 2.32-.73 3.54s-.26 2.423-.26 3.609c0 1.578.15 3.179.46 4.803q.45 2.436 1.23 4.524c.52 1.392 1.09 2.525 1.73 3.4h-2.07a21.5 21.5 0 0 1-2.8-5.806c-.65-2.108-.98-4.415-.98-6.921m9.63 10.182v-20.364h6.88c1.6 0 2.9.289 3.92.865 1.02.57 1.77 1.343 2.26 2.317.5.975.74 2.062.74 3.262 0 1.199-.24 2.29-.74 3.271-.48.981-1.23 1.763-2.24 2.346q-1.53.865-3.9.865h-4.93v-2.187h4.85q1.635 0 2.64-.567.99-.567 1.44-1.531.45-.975.45-2.197 0-1.224-.45-2.188c-.3-.643-.79-1.147-1.45-1.511q-1.005-.558-2.67-.557h-4.33V160Zm17.77 0v-20.364h12.29v2.188h-9.82v6.881h9.19v2.187h-9.19v6.92h9.98V160Zm16.74 0v-20.364h6.88c1.59 0 2.89.272 3.92.816 1.02.537 1.77 1.276 2.26 2.217s.74 2.012.74 3.212c0 1.199-.25 2.263-.74 3.191q-.735 1.392-2.25 2.188c-1.02.524-2.31.785-3.89.785h-5.57v-2.227h5.49c1.09 0 1.96-.159 2.62-.477.67-.318 1.16-.769 1.45-1.352.31-.59.46-1.293.46-2.108s-.15-1.528-.46-2.138c-.3-.61-.79-1.081-1.46-1.412-.67-.338-1.55-.507-2.65-.507h-4.34V160Zm9.58-9.148 5.01 9.148h-2.86l-4.93-9.148zm7.65 9.148v-1.79l10.98-16.386h-11.1v-2.188h14.04v1.79L1439 157.812h11.1V160Zm20.64-20.364V160h-2.46v-20.364zm4.95 20.364v-20.364h6.88c1.6 0 2.9.289 3.92.865 1.02.57 1.77 1.343 2.26 2.317s.74 2.062.74 3.262c0 1.199-.25 2.29-.74 3.271-.48.981-1.23 1.763-2.24 2.346q-1.53.865-3.9.865h-4.93v-2.187h4.85c1.09 0 1.97-.189 2.63-.567.67-.378 1.15-.888 1.45-1.531q.45-.975.45-2.197 0-1.224-.45-2.188c-.3-.643-.79-1.147-1.46-1.511-.67-.372-1.55-.557-2.66-.557h-4.34V160Zm20.24-20.364V160h-2.47v-20.364zm4.94 20.364v-20.364h12.29v2.188h-9.82v6.881h9.18v2.187h-9.18v6.92h9.98V160Zm32.88-20.364V160h-2.38l-11.1-15.989h-.2V160h-2.46v-20.364h2.38l11.14 16.029h.2v-16.029zm3.82 2.188v-2.188h15.28v2.188h-6.41V160h-2.46v-18.176zm23.78 7.994q0 3.759-.99 6.921a21.5 21.5 0 0 1-2.79 5.806h-2.07c.48-.656.92-1.465 1.33-2.426.42-.954.78-2.002 1.1-3.142q.465-1.72.72-3.549.27-1.84.27-3.61c0-1.577-.15-3.178-.46-4.802q-.45-2.436-1.23-4.525c-.52-1.392-1.09-2.525-1.73-3.4h2.07a21.4 21.4 0 0 1 2.79 5.817q.99 3.151.99 6.91M448.511 106V85.636h6.881q2.385 0 3.917.816 1.532.805 2.267 2.217.736 1.412.736 3.212 0 1.799-.736 3.191t-2.257 2.188q-1.521.785-3.888.785h-5.568v-2.227h5.489q1.63 0 2.625-.477 1.004-.477 1.451-1.352.458-.885.458-2.108t-.458-2.138q-.457-.915-1.461-1.412-1.005-.507-2.655-.507h-4.335V106Zm9.585-9.148 5.011 9.148h-2.863l-4.932-9.148zm8.325 9.148V85.636h12.29v2.188h-9.824v6.881h9.187v2.187h-9.187v6.92h9.983V106Zm17.57 0h-2.586l7.478-20.364h2.545L498.905 106h-2.585l-6.085-17.142h-.159zm.954-7.955h10.421v2.188h-10.421ZM502.077 106V85.636h2.466v18.176h9.466V106Zm18.216-20.364V106h-2.466V85.636Zm16.081 5.091q-.18-1.51-1.452-2.346t-3.122-.836q-1.352 0-2.367.438-1.004.438-1.571 1.203a2.9 2.9 0 0 0-.556 1.74q0 .816.387 1.402.399.577 1.015.965.616.377 1.292.626.676.238 1.243.388l2.068.557q.796.209 1.77.576.984.368 1.879 1.005a5.1 5.1 0 0 1 1.492 1.61q.587.985.587 2.417 0 1.65-.866 2.983-.855 1.332-2.505 2.117-1.641.786-3.987.786-2.188 0-3.789-.706-1.59-.706-2.505-1.969-.906-1.263-1.025-2.933h2.546q.1 1.153.775 1.909.687.745 1.731 1.114a7 7 0 0 0 2.267.358q1.412 0 2.535-.458 1.123-.467 1.78-1.292.656-.836.656-1.949 0-1.015-.567-1.651-.566-.636-1.491-1.034a16 16 0 0 0-1.999-.696l-2.505-.716q-2.387-.686-3.779-1.959-1.392-1.272-1.392-3.331 0-1.71.925-2.983.934-1.282 2.506-1.988 1.58-.716 3.529-.716 1.97 0 3.5.706 1.532.696 2.427 1.909.905 1.213.954 2.754zM543.928 106h-2.585l7.477-20.364h2.546L558.843 106h-2.585l-6.086-17.142h-.159zm.955-7.955h10.42v2.188h-10.42zm13.639-10.221v-2.188h15.273v2.188h-6.403V106h-2.466V87.824Zm21.545-2.188V106h-2.466V85.636Zm22.126 10.182q0 3.222-1.164 5.568-1.163 2.347-3.191 3.62-2.029 1.272-4.634 1.272t-4.634-1.272-3.191-3.62q-1.164-2.346-1.164-5.568t1.164-5.568 3.191-3.619q2.029-1.273 4.634-1.273t4.634 1.273 3.191 3.619q1.164 2.346 1.164 5.568m-2.387 0q0-2.645-.885-4.464-.875-1.82-2.376-2.755-1.491-.934-3.341-.934t-3.351.934q-1.491.936-2.376 2.755-.875 1.82-.875 4.464t.875 4.465q.885 1.82 2.376 2.754 1.502.935 3.351.935 1.85 0 3.341-.935 1.501-.934 2.376-2.754.885-1.82.885-4.465m22.681-10.182V106H620.1l-11.096-15.989h-.199V106h-2.466V85.636h2.386l11.137 16.029h.199V85.636ZM1068.39 87.824v-2.188h15.27v2.188h-6.4V106h-2.47V87.824ZM1087.47 106V85.636h6.88c1.59 0 2.89.272 3.91.816 1.03.537 1.78 1.276 2.27 2.217s.74 2.012.74 3.212c0 1.199-.25 2.263-.74 3.191s-1.24 1.658-2.26 2.188c-1.01.524-2.31.785-3.88.785h-5.57v-2.227h5.49c1.08 0 1.96-.159 2.62-.477.67-.318 1.16-.769 1.45-1.352.31-.59.46-1.293.46-2.108s-.15-1.528-.46-2.138c-.3-.61-.79-1.081-1.46-1.412-.67-.338-1.55-.507-2.65-.507h-4.34V106Zm9.58-9.148 5.01 9.148h-2.86l-4.93-9.148zm9.16 9.148h-2.58l7.47-20.364h2.55l7.48 20.364h-2.59l-6.08-17.142h-.16zm.96-7.955h10.42v2.188h-10.42zm33.28-12.409V106h-2.39l-11.1-15.989h-.2V106h-2.46V85.636h2.38l11.14 16.029h.2V85.636Zm16.07 5.091c-.12-1.007-.61-1.789-1.46-2.346q-1.26-.836-3.12-.836c-.9 0-1.69.146-2.36.438s-1.2.693-1.58 1.203c-.37.51-.55 1.091-.55 1.74q0 .816.39 1.402c.26.385.6.706 1.01.965q.615.377 1.29.626c.45.159.87.288 1.25.388l2.06.557q.795.209 1.77.576c.66.246 1.29.58 1.88 1.005.61.417 1.1.954 1.49 1.61.4.657.59 1.462.59 2.417 0 1.1-.29 2.094-.86 2.983-.57.888-1.41 1.594-2.51 2.117q-1.635.786-3.99.786c-1.46 0-2.72-.235-3.79-.706-1.06-.471-1.89-1.127-2.5-1.969-.6-.842-.95-1.819-1.03-2.933h2.55q.105 1.153.78 1.909c.45.497 1.03.868 1.73 1.114.7.238 1.45.358 2.26.358.94 0 1.79-.153 2.54-.458.75-.311 1.34-.742 1.78-1.292.44-.557.65-1.207.65-1.949 0-.676-.18-1.227-.56-1.651s-.88-.769-1.49-1.034c-.62-.265-1.29-.497-2-.696l-2.51-.716q-2.385-.686-3.78-1.959c-.92-.848-1.39-1.958-1.39-3.331q0-1.71.93-2.983c.62-.855 1.45-1.517 2.5-1.988 1.06-.477 2.23-.716 3.53-.716 1.31 0 2.48.235 3.5.706q1.53.696 2.43 1.909c.6.809.92 1.727.95 2.754zm9.18-5.091V106h-2.46V85.636Zm3.83 2.188v-2.188h15.27v2.188h-6.4V106h-2.46V87.824Zm21.55-2.188V106h-2.47V85.636Zm22.12 10.182c0 2.148-.39 4.004-1.16 5.568-.78 1.565-1.84 2.771-3.19 3.62-1.35.848-2.9 1.272-4.64 1.272-1.73 0-3.28-.424-4.63-1.272s-2.42-2.055-3.19-3.62c-.78-1.564-1.16-3.42-1.16-5.568s.38-4.004 1.16-5.568c.77-1.564 1.84-2.771 3.19-3.619s2.9-1.273 4.63-1.273c1.74 0 3.29.424 4.64 1.273 1.35.848 2.41 2.055 3.19 3.619.77 1.564 1.16 3.42 1.16 5.568m-2.38 0c0-1.763-.3-3.251-.89-4.464-.58-1.213-1.37-2.131-2.38-2.755-.99-.623-2.1-.934-3.34-.934-1.23 0-2.35.311-3.35.934q-1.485.936-2.37 2.755c-.59 1.213-.88 2.701-.88 4.464s.29 3.252.88 4.465q.885 1.82 2.37 2.754c1 .623 2.12.935 3.35.935 1.24 0 2.35-.312 3.34-.935 1.01-.623 1.8-1.541 2.38-2.754.59-1.213.89-2.702.89-4.465m22.68-10.182V106h-2.39l-11.1-15.989h-.2V106h-2.46V85.636h2.39l11.13 16.029h.2V85.636ZM690.708 270v-20.364h2.466v10.103h.239l9.147-10.103h3.222l-8.551 9.188L705.782 270h-2.983l-7.08-9.466-2.545 2.864V270Zm18.266 0v-20.364h6.88q2.387 0 3.918.816 1.532.805 2.267 2.217.736 1.412.736 3.212 0 1.799-.736 3.191-.736 1.393-2.257 2.188-1.521.785-3.888.785h-5.568v-2.227h5.489q1.63 0 2.625-.477 1.004-.477 1.451-1.352.458-.885.458-2.108t-.458-2.138-1.461-1.412q-1.005-.507-2.655-.507h-4.335V270Zm9.585-9.148L723.57 270h-2.863l-4.932-9.148zm10.791-11.216V270h-2.466v-20.364zm3.83 2.188v-2.188h15.273v2.188h-6.403V270h-2.466v-18.176zm21.545-2.188V270h-2.466v-20.364ZM759.669 270v-20.364h2.466v10.103h.239l9.147-10.103h3.222l-8.551 9.188L774.743 270h-2.983l-7.08-9.466-2.545 2.864V270Zm21.447-2.784-.159 1.074a22 22 0 0 1-.517 2.426q-.337 1.293-.706 2.436a73 73 0 0 1-.606 1.82h-1.79l.338-1.681q.209-1.044.418-2.336.219-1.284.358-2.625l.119-1.114zM793.657 270v-20.364h2.466v10.103h.239l9.148-10.103h3.221l-8.551 9.188L808.731 270h-2.983l-7.079-9.466-2.546 2.864V270Zm34.491-10.182q0 3.222-1.164 5.568-1.163 2.347-3.191 3.62-2.029 1.272-4.634 1.272t-4.633-1.272q-2.03-1.273-3.192-3.62-1.164-2.346-1.164-5.568t1.164-5.568 3.192-3.619 4.633-1.273 4.634 1.273 3.191 3.619q1.164 2.346 1.164 5.568m-2.387 0q0-2.644-.885-4.464-.875-1.82-2.376-2.755-1.491-.934-3.341-.934t-3.351.934q-1.491.936-2.376 2.755-.875 1.82-.875 4.464t.875 4.465q.885 1.82 2.376 2.754 1.501.935 3.351.935t3.341-.935q1.501-.935 2.376-2.754.885-1.82.885-4.465m22.681-10.182V270h-2.387l-11.096-15.989h-.199V270h-2.466v-20.364h2.386l11.137 16.029h.199v-16.029zm16.07 5.091q-.179-1.51-1.451-2.346t-3.122-.836q-1.353 0-2.367.438-1.004.438-1.571 1.203a2.9 2.9 0 0 0-.557 1.74q0 .816.388 1.402.397.577 1.014.965.617.377 1.293.626.676.238 1.243.388l2.068.557q.795.209 1.77.576.984.368 1.879 1.005.904.626 1.492 1.61.586.985.586 2.417 0 1.65-.865 2.983-.855 1.332-2.506 2.117-1.64.786-3.987.786-2.187 0-3.788-.706-1.591-.706-2.506-1.969-.904-1.262-1.024-2.933h2.546q.099 1.153.775 1.909.686.745 1.73 1.114a7 7 0 0 0 2.267.358q1.413 0 2.536-.458 1.123-.467 1.78-1.292.656-.836.656-1.949 0-1.014-.567-1.651-.567-.636-1.491-1.034a16 16 0 0 0-1.999-.696l-2.506-.716q-2.386-.685-3.778-1.959-1.392-1.272-1.392-3.331 0-1.71.925-2.983.934-1.282 2.505-1.988 1.581-.716 3.53-.716 1.969 0 3.5.706 1.532.696 2.426 1.909.905 1.214.955 2.754zm20.083-5.091h2.466v13.483q0 2.088-.984 3.729-.975 1.631-2.755 2.575-1.779.935-4.176.935-2.395 0-4.176-.935-1.78-.944-2.764-2.575-.975-1.641-.974-3.729v-13.483h2.465v13.284q0 1.493.657 2.655a4.7 4.7 0 0 0 1.869 1.82q1.223.656 2.923.656t2.924-.656q1.222-.666 1.869-1.82.656-1.163.656-2.655zm7.39 0h2.944l6.92 16.904h.239l6.92-16.904h2.943V270h-2.306v-15.472h-.199L903.082 270h-2.227l-6.364-15.472h-.199V270h-2.307zM917.731 270h-2.585l7.477-20.364h2.545L932.646 270h-2.586l-6.085-17.142h-.159zm.954-7.955h10.421v2.188h-10.421zm13.64-10.221v-2.188h15.273v2.188h-6.404V270h-2.466v-18.176zm21.544-2.188V270h-2.466v-20.364zm22.126 10.182q0 3.222-1.163 5.568-1.163 2.347-3.192 3.62-2.029 1.272-4.633 1.272-2.606 0-4.634-1.272t-3.192-3.62q-1.163-2.346-1.163-5.568t1.163-5.568 3.192-3.619 4.634-1.273 4.633 1.273 3.192 3.619 1.163 5.568m-2.386 0q0-2.644-.885-4.464-.875-1.82-2.376-2.755-1.492-.934-3.341-.934t-3.351.934q-1.491.936-2.377 2.755-.875 1.82-.875 4.464t.875 4.465q.885 1.82 2.377 2.754 1.501.935 3.351.935 1.849 0 3.341-.935 1.501-.934 2.376-2.754.885-1.82.885-4.465m22.681-10.182V270h-2.39l-11.094-15.989h-.198V270h-2.466v-20.364h2.386l11.132 16.029h.2v-16.029z"/><path stroke="#000" stroke-width="2" d="M1461 182v96"/><path fill="#000" d="M226.707 182.293a1 1 0 0 0-1.414 0l-6.364 6.364a.999.999 0 1 0 1.414 1.414l5.657-5.657 5.657 5.657a.999.999 0 1 0 1.414-1.414zM225 183v95h2v-95z"/><path stroke="#000" stroke-width="2" d="M225 278h1237"/></svg>