<svg xmlns="http://www.w3.org/2000/svg" width="1526" height="330" fill="none"><path d="M0-330h1526V0H0z" style="opacity:.996;fill:#fff;stroke:#646464;stroke-width:0" transform="scale(1 -1)"/><path fill="#000" d="M613.707 117.707a1 1 0 0 0 0-1.414l-6.364-6.364a.999.999 0 1 0-1.414 1.414l5.657 5.657-5.657 5.657a.999.999 0 1 0 1.414 1.414zM349 118h264v-2H349Zm828.71.707a1 1 0 0 0 0-1.414l-6.37-6.364a.994.994 0 0 0-1.41 0 1 1 0 0 0 0 1.414l5.66 5.657-5.66 5.657a1 1 0 0 0 0 1.414.994.994 0 0 0 1.41 0zM913 119h264v-2H913Z"/><path fill="#fff" stroke="#000" stroke-width="2" d="M51 51h298v132H51z" style="fill:none"/><path fill="#000" d="M145.516 93h-2.585l7.477-20.364h2.545L160.431 93h-2.585l-6.086-17.142h-.159zm.955-7.955h10.42v2.188h-10.42zM163.603 93V72.636h6.88q2.386 0 3.918.816 1.531.805 2.267 2.217t.736 3.212q0 1.799-.736 3.191t-2.257 2.188q-1.521.785-3.888.785h-5.568v-2.227h5.489q1.63 0 2.625-.477 1.004-.477 1.451-1.352.458-.885.458-2.108t-.458-2.138q-.457-.915-1.461-1.412-1.005-.507-2.655-.507h-4.335V93Zm9.585-9.148L178.199 93h-2.863l-4.932-9.148zm7.211-9.028v-2.188h15.273v2.188h-6.404V93h-2.465V74.824Zm21.545-2.188V93h-2.466V72.636Zm16.08 5.091q-.179-1.51-1.452-2.346t-3.122-.836q-1.352 0-2.366.438-1.004.438-1.571 1.203a2.9 2.9 0 0 0-.557 1.74q0 .816.388 1.402.398.577 1.014.965.617.377 1.293.626.676.238 1.242.388l2.069.557q.795.209 1.77.576.984.368 1.879 1.005.905.626 1.491 1.61t.587 2.417q0 1.65-.865 2.983-.855 1.332-2.506 2.117-1.641.786-3.987.786-2.187 0-3.788-.706-1.591-.706-2.506-1.969-.905-1.263-1.024-2.933h2.545q.1 1.153.776 1.909.686.745 1.73 1.114a7 7 0 0 0 2.267.358q1.411 0 2.535-.458 1.125-.467 1.78-1.292.657-.836.657-1.949 0-1.015-.567-1.651t-1.492-1.034a16 16 0 0 0-1.998-.696l-2.506-.716q-2.386-.686-3.778-1.959-1.392-1.272-1.392-3.331 0-1.71.924-2.983.935-1.282 2.506-1.988 1.581-.716 3.53-.716 1.968 0 3.5.706 1.531.696 2.426 1.909.904 1.213.955 2.754zm5.606-2.903v-2.188h15.272v2.188h-6.403V93h-2.466V74.824ZM241.164 93h-2.585l7.477-20.364h2.546L256.079 93h-2.585l-6.085-17.142h-.159zm.955-7.955h10.42v2.188h-10.42zM105.03 116.818q0-3.759.974-6.91a21.6 21.6 0 0 1 2.804-5.817h2.068q-.715.984-1.342 2.426a24 24 0 0 0-1.084 3.152 30 30 0 0 0-.736 3.54 26 26 0 0 0-.258 3.609q0 2.367.457 4.803a27.6 27.6 0 0 0 1.233 4.524q.776 2.088 1.73 3.4h-2.068a21.6 21.6 0 0 1-2.804-5.806q-.974-3.162-.974-6.921M114.657 127v-20.364h6.881q2.396 0 3.918.865 1.53.856 2.267 2.317.735 1.462.735 3.262 0 1.799-.735 3.271-.726 1.471-2.248 2.346-1.521.865-3.897.865h-4.932v-2.187h4.852q1.64 0 2.635-.567t1.442-1.531q.457-.975.457-2.197 0-1.224-.457-2.188-.447-.965-1.452-1.511-1.004-.557-2.665-.557h-4.335V127Zm17.774 0v-20.364h6.88q2.387 0 3.918.816 1.532.805 2.267 2.217.736 1.412.736 3.212 0 1.799-.736 3.191t-2.257 2.188q-1.521.785-3.888.785h-5.568v-2.227h5.489q1.63 0 2.625-.477 1.004-.477 1.451-1.352.458-.885.458-2.108t-.458-2.138q-.457-.915-1.461-1.412-1.005-.507-2.655-.507h-4.335V127Zm9.585-9.148 5.011 9.148h-2.863l-4.932-9.148zm25.507-1.034q0 3.222-1.164 5.568-1.163 2.347-3.191 3.62-2.029 1.272-4.634 1.272t-4.633-1.272q-2.03-1.273-3.192-3.62-1.164-2.346-1.164-5.568t1.164-5.568q1.162-2.346 3.192-3.619 2.028-1.273 4.633-1.273t4.634 1.273q2.028 1.273 3.191 3.619 1.164 2.346 1.164 5.568m-2.387 0q0-2.645-.885-4.464-.874-1.82-2.376-2.755-1.491-.934-3.341-.934t-3.351.934q-1.491.936-2.376 2.755-.876 1.82-.875 4.464 0 2.645.875 4.465.885 1.82 2.376 2.754 1.502.935 3.351.935 1.85 0 3.341-.935 1.502-.934 2.376-2.754.885-1.82.885-4.465M177.953 127h-6.284v-20.364h6.563q2.962 0 5.071 1.223 2.108 1.213 3.231 3.49 1.124 2.268 1.124 5.429 0 3.183-1.134 5.479-1.134 2.287-3.301 3.52-2.168 1.223-5.27 1.223m-3.818-2.188h3.659q2.526 0 4.186-.974 1.66-.975 2.476-2.774.816-1.8.815-4.286 0-2.466-.805-4.245-.805-1.79-2.406-2.745-1.602-.964-3.988-.964h-3.937zm31.023-18.176h2.466v13.483q0 2.088-.985 3.729-.974 1.631-2.754 2.575-1.78.935-4.176.935t-4.176-.935q-1.78-.944-2.765-2.575-.974-1.641-.974-3.729v-13.483h2.466v13.284q0 1.492.656 2.655a4.7 4.7 0 0 0 1.87 1.82q1.222.656 2.923.656 1.7 0 2.923-.656 1.223-.666 1.869-1.82.657-1.163.657-2.655zM228.934 113h-2.466a5.1 5.1 0 0 0-.765-1.869 5.1 5.1 0 0 0-1.313-1.353 5.6 5.6 0 0 0-1.7-.835 6.8 6.8 0 0 0-1.949-.278q-1.85 0-3.351.934-1.491.936-2.376 2.755-.875 1.82-.875 4.464t.875 4.465q.885 1.82 2.376 2.754 1.501.935 3.351.935 1.014 0 1.949-.279a5.7 5.7 0 0 0 1.7-.825 5.2 5.2 0 0 0 1.313-1.362q.547-.816.765-1.87h2.466q-.278 1.561-1.014 2.794a7.6 7.6 0 0 1-1.829 2.098 8 8 0 0 1-2.456 1.303 9.2 9.2 0 0 1-2.894.447q-2.605 0-4.633-1.272-2.03-1.273-3.192-3.62-1.164-2.346-1.164-5.568t1.164-5.568q1.162-2.346 3.192-3.619 2.028-1.273 4.633-1.273 1.541 0 2.894.447a7.9 7.9 0 0 1 2.456 1.313 7.5 7.5 0 0 1 1.829 2.088q.737 1.223 1.014 2.794m2.871-4.176v-2.188h15.273v2.188h-6.403V127h-2.466v-18.176zm35.413 7.994q0 3.222-1.163 5.568-1.164 2.347-3.192 3.62-2.028 1.272-4.634 1.272-2.604 0-4.633-1.272t-3.192-3.62q-1.163-2.346-1.163-5.568t1.163-5.568 3.192-3.619 4.633-1.273q2.606 0 4.634 1.273t3.192 3.619 1.163 5.568m-2.386 0q0-2.645-.885-4.464-.876-1.82-2.377-2.755-1.491-.934-3.341-.934t-3.35.934q-1.492.936-2.377 2.755-.875 1.82-.875 4.464t.875 4.465q.885 1.82 2.377 2.754 1.5.935 3.35.935t3.341-.935q1.501-.934 2.377-2.754.885-1.82.885-4.465M271.364 127v-20.364h6.881q2.386 0 3.918.816 1.53.805 2.267 2.217.735 1.412.735 3.212 0 1.799-.735 3.191-.736 1.392-2.257 2.188-1.523.785-3.888.785h-5.568v-2.227h5.488q1.63 0 2.625-.477 1.005-.477 1.452-1.352.457-.885.457-2.108t-.457-2.138-1.462-1.412q-1.003-.507-2.655-.507h-4.335V127Zm9.586-9.148 5.011 9.148h-2.864l-4.932-9.148zm13.018-1.034q0 3.759-.985 6.921a21.3 21.3 0 0 1-2.794 5.806h-2.068q.716-.984 1.332-2.426.627-1.431 1.094-3.142.468-1.72.726-3.549.269-1.84.269-3.61a26 26 0 0 0-.458-4.802 27.7 27.7 0 0 0-1.233-4.525q-.776-2.088-1.73-3.4h2.068a21.3 21.3 0 0 1 2.794 5.817q.985 3.151.985 6.91m-157.274 34q0-3.759.974-6.91a21.6 21.6 0 0 1 2.804-5.817h2.068q-.715.984-1.342 2.426a24 24 0 0 0-1.084 3.152 30 30 0 0 0-.735 3.54 26 26 0 0 0-.259 3.609q0 2.367.457 4.803a27.6 27.6 0 0 0 1.233 4.524q.776 2.088 1.73 3.4h-2.068a21.6 21.6 0 0 1-2.804-5.806q-.974-3.162-.974-6.921M147.157 161h-2.586l7.478-20.364h2.545L162.071 161h-2.585l-6.085-17.142h-.159zm.954-7.955h10.421v2.188h-10.421ZM178.207 147a7.2 7.2 0 0 0-.865-1.8 5.6 5.6 0 0 0-1.263-1.372 5.3 5.3 0 0 0-1.651-.865 6.6 6.6 0 0 0-2.028-.298q-1.81 0-3.291.934-1.482.936-2.357 2.755-.875 1.82-.875 4.464t.885 4.465q.885 1.82 2.396 2.754 1.512.935 3.401.935 1.75 0 3.082-.746a5.3 5.3 0 0 0 2.088-2.128q.756-1.382.756-3.251l.756.159h-6.125v-2.188h7.755v2.188q0 2.515-1.073 4.375a7.43 7.43 0 0 1-2.944 2.883q-1.87 1.014-4.295 1.014-2.704 0-4.753-1.272-2.038-1.273-3.182-3.62-1.133-2.346-1.133-5.568 0-2.416.646-4.345.657-1.94 1.85-3.301a8.1 8.1 0 0 1 2.823-2.088q1.63-.726 3.59-.726 1.611 0 3.003.487a8 8 0 0 1 2.495 1.362 7.8 7.8 0 0 1 1.84 2.098q.736 1.213 1.014 2.695zm6.888 14v-20.364h12.29v2.188h-9.824v6.881h9.187v2.187h-9.187v6.92h9.983V161Zm32.882-20.364V161h-2.386l-11.097-15.989h-.199V161h-2.466v-20.364h2.387l11.136 16.029h.199v-16.029zm3.821 2.188v-2.188h15.272v2.188h-6.403V161h-2.466v-18.176ZM240.876 161v-20.364h12.29v2.188h-9.824v6.881h9.187v2.187h-9.187v6.92h9.983V161Zm21.428-10.182q0 3.759-.985 6.921a21.3 21.3 0 0 1-2.794 5.806h-2.068q.715-.984 1.332-2.426.627-1.432 1.094-3.142.468-1.72.726-3.549.268-1.84.268-3.61 0-2.366-.457-4.802a27.7 27.7 0 0 0-1.233-4.525q-.776-2.088-1.73-3.4h2.068a21.3 21.3 0 0 1 2.794 5.817q.985 3.151.985 6.91"/><path fill="#fff" stroke="#000" stroke-width="2" d="M615 52h298v132H615z" style="fill:none"/><path fill="#000" d="M728.687 83.818q0 3.222-1.164 5.568-1.163 2.347-3.191 3.62-2.029 1.272-4.634 1.272t-4.633-1.272q-2.03-1.273-3.192-3.62-1.163-2.346-1.163-5.568t1.163-5.568 3.192-3.619 4.633-1.273 4.634 1.273q2.028 1.273 3.191 3.619 1.164 2.346 1.164 5.568m-2.387 0q0-2.645-.885-4.464-.875-1.82-2.376-2.755-1.491-.934-3.341-.934t-3.351.934q-1.491.936-2.376 2.755-.875 1.82-.875 4.464t.875 4.465q.885 1.82 2.376 2.754 1.501.935 3.351.935t3.341-.935q1.501-.934 2.376-2.754.885-1.82.885-4.465M732.833 94V73.636h7.119q2.129 0 3.51.736 1.383.726 2.059 1.959.676 1.223.676 2.714 0 1.313-.468 2.168a3.6 3.6 0 0 1-1.213 1.352 5.5 5.5 0 0 1-1.62.736v.199q.934.06 1.879.656t1.581 1.71.636 2.725q0 1.532-.696 2.754-.696 1.224-2.197 1.939t-3.908.716zm2.466-2.188h4.892q2.416 0 3.43-.934 1.025-.945 1.025-2.287 0-1.034-.527-1.909a3.8 3.8 0 0 0-1.502-1.412q-.974-.537-2.307-.537h-5.011zm0-9.227h4.574q1.114 0 2.008-.437a3.5 3.5 0 0 0 1.432-1.233q.537-.796.537-1.87 0-1.341-.935-2.277-.934-.944-2.963-.944h-4.653zm23.54-8.949h2.466v14.557q0 1.949-.716 3.311-.716 1.363-2.018 2.068t-3.072.706q-1.671 0-2.973-.606-1.304-.616-2.049-1.75t-.745-2.695h2.426q0 .866.427 1.512.438.636 1.193.994t1.721.358q1.063 0 1.809-.448.745-.447 1.134-1.312.397-.875.397-2.138zM766.247 94V73.636h12.29v2.188h-9.824v6.881h9.188v2.187h-9.188v6.92h9.983V94Zm15.621-18.176v-2.188h15.273v2.188h-6.404V94h-2.466V75.824Zm35.413 7.994q0 3.222-1.164 5.568-1.163 2.347-3.192 3.62-2.028 1.272-4.633 1.272t-4.634-1.272-3.191-3.62q-1.164-2.346-1.164-5.568t1.164-5.568 3.191-3.619q2.029-1.273 4.634-1.273t4.633 1.273q2.03 1.273 3.192 3.619 1.164 2.346 1.164 5.568m-2.387 0q0-2.645-.885-4.464-.874-1.82-2.376-2.755-1.492-.934-3.341-.934t-3.351.934q-1.491.936-2.376 2.755-.875 1.82-.875 4.464t.875 4.465q.885 1.82 2.376 2.754 1.502.935 3.351.935t3.341-.935q1.502-.934 2.376-2.754.885-1.82.885-4.465m-151.599 34q0-3.759.975-6.91a21.6 21.6 0 0 1 2.804-5.817h2.068q-.716.984-1.342 2.426a24 24 0 0 0-1.084 3.152 30 30 0 0 0-.736 3.54 26 26 0 0 0-.258 3.609q0 2.367.457 4.803a27.6 27.6 0 0 0 1.233 4.524q.776 2.088 1.73 3.4h-2.068a21.6 21.6 0 0 1-2.804-5.806q-.975-3.162-.975-6.921m12.094-10.182V128h-2.466v-20.364zm21.092 0V128h-2.387l-11.096-15.989h-.199V128h-2.466v-20.364h2.386l11.137 16.029h.199v-16.029ZM701.415 128v-20.364h12.21v2.188h-9.744v6.881h8.83v2.187h-8.83V128Zm33.616-10.182q0 3.222-1.164 5.568-1.163 2.347-3.192 3.62-2.028 1.272-4.633 1.272t-4.634-1.272-3.191-3.62q-1.164-2.346-1.164-5.568t1.164-5.568 3.191-3.619q2.029-1.273 4.634-1.273t4.633 1.273q2.03 1.273 3.192 3.619 1.164 2.346 1.164 5.568m-2.387 0q0-2.645-.885-4.464-.874-1.82-2.376-2.755-1.492-.934-3.341-.934t-3.351.934q-1.491.936-2.376 2.755-.875 1.82-.875 4.464t.875 4.465q.885 1.82 2.376 2.754 1.502.935 3.351.935t3.341-.935q1.502-.934 2.376-2.754.885-1.82.885-4.465M739.177 128v-20.364h6.881q2.385 0 3.917.816 1.532.805 2.267 2.217.736 1.412.736 3.212 0 1.799-.736 3.191t-2.257 2.188q-1.521.785-3.888.785h-5.568v-2.227h5.489q1.63 0 2.625-.477 1.004-.477 1.451-1.352.458-.885.458-2.108t-.458-2.138-1.461-1.412q-1.005-.507-2.655-.507h-4.335V128Zm9.585-9.148 5.011 9.148h-2.863l-4.932-9.148zm8.325-11.216h2.943l6.921 16.904h.238l6.921-16.904h2.943V128h-2.307v-15.472h-.199L768.184 128h-2.228l-6.363-15.472h-.199V128h-2.307zM782.832 128h-2.585l7.477-20.364h2.546L797.747 128h-2.585l-6.085-17.142h-.159zm.955-7.955h10.42v2.188h-10.42zM816.348 114h-2.466a5.1 5.1 0 0 0-.765-1.869 5.1 5.1 0 0 0-1.313-1.353 5.6 5.6 0 0 0-1.7-.835 6.8 6.8 0 0 0-1.949-.278q-1.85 0-3.351.934-1.491.936-2.376 2.755-.875 1.82-.875 4.464t.875 4.465q.885 1.82 2.376 2.754 1.501.935 3.351.935 1.014 0 1.949-.279a5.7 5.7 0 0 0 1.7-.825 5.2 5.2 0 0 0 1.313-1.362q.547-.816.765-1.87h2.466q-.277 1.561-1.014 2.794a7.6 7.6 0 0 1-1.829 2.098 8 8 0 0 1-2.456 1.303 9.2 9.2 0 0 1-2.894.447q-2.605 0-4.633-1.272-2.03-1.273-3.192-3.62-1.163-2.346-1.163-5.568t1.163-5.568 3.192-3.619 4.633-1.273q1.542 0 2.894.447a7.9 7.9 0 0 1 2.456 1.313 7.5 7.5 0 0 1 1.829 2.088q.736 1.223 1.014 2.794m6.451-6.364V128h-2.466v-20.364zm22.126 10.182q0 3.222-1.163 5.568-1.164 2.347-3.192 3.62-2.028 1.272-4.634 1.272-2.604 0-4.633-1.272t-3.192-3.62q-1.163-2.346-1.163-5.568t1.163-5.568 3.192-3.619 4.633-1.273q2.606 0 4.634 1.273t3.192 3.619 1.163 5.568m-2.386 0q0-2.645-.885-4.464-.876-1.82-2.377-2.755-1.491-.934-3.341-.934-1.849 0-3.35.934-1.492.936-2.377 2.755-.875 1.82-.875 4.464t.875 4.465q.885 1.82 2.377 2.754 1.501.935 3.35.935t3.341-.935q1.501-.934 2.377-2.754.885-1.82.885-4.465m-7.676-12.25 2.426-4.613h2.744l-3.102 4.613zm30.356 2.068V128h-2.386l-11.097-15.989h-.199V128h-2.466v-20.364h2.387l11.136 16.029h.199v-16.029ZM694.415 162v-20.364h12.29v2.188h-9.824v6.881h9.188v2.187h-9.188v6.92h9.983V162Zm27.871-15.273q-.178-1.51-1.452-2.346-1.272-.836-3.122-.836-1.353 0-2.366.438-1.005.438-1.571 1.203a2.88 2.88 0 0 0-.557 1.74q0 .816.387 1.402.399.577 1.015.965.617.378 1.292.626.676.238 1.243.388l2.068.557q.796.209 1.77.576.985.368 1.88 1.005.904.626 1.491 1.61t.587 2.417q0 1.65-.865 2.983-.855 1.332-2.506 2.117-1.641.786-3.987.786-2.188 0-3.789-.706-1.59-.706-2.505-1.969-.906-1.263-1.024-2.933h2.545q.1 1.153.776 1.909.686.745 1.73 1.114a7 7 0 0 0 2.267.358q1.412 0 2.535-.458 1.124-.467 1.78-1.292.656-.836.656-1.949 0-1.014-.566-1.651-.567-.636-1.492-1.034a16 16 0 0 0-1.999-.696l-2.505-.716q-2.387-.685-3.779-1.959-1.392-1.272-1.392-3.331 0-1.71.925-2.983.934-1.282 2.506-1.988 1.58-.716 3.53-.716 1.968 0 3.5.706 1.53.696 2.426 1.909.904 1.214.954 2.754zm5.605-2.903v-2.188h15.273v2.188h-6.403V162h-2.466v-18.176ZM746.97 162v-20.364h12.29v2.188h-9.824v6.881h9.187v2.187h-9.187v6.92h9.983V162Zm5.051-22.432 2.426-4.613h2.744l-3.102 4.613zm10.57 4.256v-2.188h15.272v2.188h-6.403V162h-2.466v-18.176zm21.544-2.188V162h-2.466v-20.364ZM805.466 148H803a5.1 5.1 0 0 0-.766-1.869 5.1 5.1 0 0 0-1.312-1.353 5.6 5.6 0 0 0-1.701-.835 6.8 6.8 0 0 0-1.949-.278q-1.85 0-3.35.934-1.492.936-2.377 2.755-.875 1.82-.875 4.464t.875 4.465q.885 1.82 2.377 2.754 1.5.935 3.35.935 1.015 0 1.949-.279a5.7 5.7 0 0 0 1.701-.825 5.22 5.22 0 0 0 2.078-3.232h2.466q-.279 1.561-1.015 2.794a7.6 7.6 0 0 1-1.829 2.098 8 8 0 0 1-2.456 1.303 9.2 9.2 0 0 1-2.894.447q-2.604 0-4.633-1.272t-3.192-3.62q-1.163-2.346-1.163-5.568t1.163-5.568 3.192-3.619 4.633-1.273q1.541 0 2.894.447a7.9 7.9 0 0 1 2.456 1.313 7.5 7.5 0 0 1 1.829 2.088q.736 1.223 1.015 2.794m4.82 14H807.7l7.478-20.364h2.545L825.2 162h-2.585l-6.085-17.142h-.159zm.954-7.955h10.421v2.188H811.24Zm21.825-2.227q0 3.759-.984 6.921a21.4 21.4 0 0 1-2.794 5.806h-2.068q.716-.984 1.332-2.426.627-1.431 1.094-3.142.466-1.72.726-3.549.268-1.84.268-3.61 0-2.366-.457-4.802a27.7 27.7 0 0 0-1.233-4.525q-.776-2.088-1.73-3.4h2.068a21.4 21.4 0 0 1 2.794 5.817q.984 3.151.984 6.91"/><path fill="#fff" stroke="#000" stroke-width="2" d="M1179 53h296v130h-296z" style="fill:none"/><path fill="#000" d="M1241.6 94h-2.59l7.48-20.364h2.55L1256.51 94h-2.58l-6.09-17.142h-.16zm.95-7.955h10.42v2.188h-10.42zM1259.68 94V73.636h6.89c1.59 0 2.9.289 3.91.865 1.02.57 1.78 1.343 2.27 2.317s.74 2.062.74 3.262c0 1.199-.25 2.29-.74 3.271q-.72 1.471-2.25 2.346c-1.01.577-2.31.865-3.89.865h-4.94v-2.187h4.86c1.09 0 1.97-.189 2.63-.567q.99-.567 1.44-1.531c.31-.65.46-1.382.46-2.197s-.15-1.545-.46-2.188c-.3-.643-.78-1.147-1.45-1.511-.67-.372-1.56-.557-2.66-.557h-4.34V94Zm17.78 0V73.636h6.88c1.59 0 2.9.272 3.92.816 1.02.537 1.77 1.276 2.26 2.217s.74 2.012.74 3.212c0 1.199-.25 2.263-.74 3.191q-.735 1.392-2.25 2.188c-1.02.524-2.31.785-3.89.785h-5.57v-2.227h5.49c1.09 0 1.96-.159 2.62-.477.67-.318 1.16-.769 1.46-1.352q.45-.885.45-2.108t-.45-2.138q-.465-.915-1.47-1.412c-.67-.338-1.55-.507-2.65-.507h-4.34V94Zm9.58-9.148 5.01 9.148h-2.86l-4.93-9.148zm8.33 9.148V73.636h12.29v2.188h-9.83v6.881h9.19v2.187h-9.19v6.92h9.99V94Zm33.12-14h-2.47a5.1 5.1 0 0 0-2.08-3.222 5.5 5.5 0 0 0-1.7-.835 6.8 6.8 0 0 0-1.94-.278c-1.24 0-2.35.311-3.36.934q-1.485.936-2.37 2.755c-.58 1.213-.88 2.701-.88 4.464s.3 3.252.88 4.465q.885 1.82 2.37 2.754c1.01.623 2.12.935 3.36.935.67 0 1.32-.093 1.94-.279a5.6 5.6 0 0 0 1.7-.825q.78-.556 1.32-1.362c.36-.544.62-1.167.76-1.87h2.47c-.19 1.041-.52 1.972-1.02 2.794a7.7 7.7 0 0 1-1.82 2.098 8 8 0 0 1-2.46 1.303c-.9.298-1.87.447-2.89.447-1.74 0-3.29-.424-4.64-1.272s-2.41-2.055-3.19-3.62-1.16-3.42-1.16-5.568.38-4.004 1.16-5.568 1.84-2.771 3.19-3.619 2.9-1.273 4.64-1.273c1.02 0 1.99.149 2.89.447q1.365.448 2.46 1.313c.72.57 1.33 1.266 1.82 2.088.5.815.83 1.747 1.02 2.794m6.45-6.364V94h-2.47V73.636ZM1340.72 94h-2.59l7.48-20.364h2.55L1355.63 94h-2.58l-6.09-17.142h-.16zm.95-7.955h10.42v2.188h-10.42zM1365.09 94h-6.28V73.636h6.56q2.955 0 5.07 1.223c1.4.809 2.48 1.972 3.23 3.49.75 1.512 1.12 3.321 1.12 5.429 0 2.122-.37 3.948-1.13 5.479a8.07 8.07 0 0 1-3.3 3.52c-1.45.815-3.2 1.223-5.27 1.223m-3.82-2.188h3.66c1.68 0 3.08-.324 4.19-.974a6 6 0 0 0 2.47-2.774c.55-1.2.82-2.628.82-4.286q0-2.466-.81-4.245c-.53-1.194-1.34-2.108-2.4-2.745q-1.605-.964-3.99-.964h-3.94zm34.84-7.994c0 2.148-.39 4.004-1.16 5.568-.78 1.565-1.84 2.771-3.19 3.62-1.35.848-2.9 1.272-4.64 1.272-1.73 0-3.28-.424-4.63-1.272s-2.42-2.055-3.19-3.62c-.78-1.564-1.16-3.42-1.16-5.568s.38-4.004 1.16-5.568c.77-1.564 1.84-2.771 3.19-3.619s2.9-1.273 4.63-1.273c1.74 0 3.29.424 4.64 1.273 1.35.848 2.41 2.055 3.19 3.619.77 1.564 1.16 3.42 1.16 5.568m-2.38 0c0-1.763-.3-3.251-.89-4.464-.58-1.213-1.37-2.131-2.38-2.755-.99-.623-2.1-.934-3.34-.934-1.23 0-2.35.311-3.35.934q-1.485.936-2.37 2.755c-.59 1.213-.88 2.701-.88 4.464s.29 3.252.88 4.465q.885 1.82 2.37 2.754c1 .623 2.12.935 3.35.935 1.24 0 2.35-.312 3.34-.935 1.01-.623 1.8-1.541 2.38-2.754.59-1.213.89-2.702.89-4.465M1400.26 94V73.636h6.88c1.59 0 2.9.272 3.92.816 1.02.537 1.77 1.276 2.26 2.217s.74 2.012.74 3.212c0 1.199-.25 2.263-.74 3.191q-.735 1.392-2.25 2.188c-1.02.524-2.31.785-3.89.785h-5.57v-2.227h5.49c1.09 0 1.96-.159 2.62-.477.67-.318 1.16-.769 1.46-1.352q.45-.885.45-2.108t-.45-2.138q-.465-.915-1.47-1.412c-.66-.338-1.55-.507-2.65-.507h-4.34V94Zm9.58-9.148 5.02 9.148h-2.87l-4.93-9.148zm-214.4 32.966c0-2.506.32-4.809.97-6.91a21.5 21.5 0 0 1 2.81-5.817h2.06c-.47.656-.92 1.465-1.34 2.426q-.615 1.432-1.08 3.152a30 30 0 0 0-.74 3.54c-.17 1.22-.26 2.423-.26 3.609 0 1.578.16 3.179.46 4.803q.465 2.436 1.23 4.524c.52 1.392 1.1 2.525 1.73 3.4h-2.06a21.5 21.5 0 0 1-2.81-5.806c-.65-2.108-.97-4.415-.97-6.921m26.01-3.818h-2.46a5.3 5.3 0 0 0-.77-1.869c-.36-.537-.8-.988-1.31-1.353a5.6 5.6 0 0 0-1.7-.835 6.9 6.9 0 0 0-1.95-.278c-1.23 0-2.35.311-3.35.934-1 .624-1.79 1.542-2.38 2.755q-.87 1.82-.87 4.464t.87 4.465c.59 1.213 1.38 2.131 2.38 2.754s2.12.935 3.35.935q1.005 0 1.95-.279a5.7 5.7 0 0 0 1.7-.825c.51-.371.95-.825 1.31-1.362.36-.544.62-1.167.77-1.87h2.46a8.1 8.1 0 0 1-1.01 2.794 7.6 7.6 0 0 1-1.83 2.098 8 8 0 0 1-2.46 1.303c-.9.298-1.86.447-2.89.447-1.74 0-3.28-.424-4.63-1.272-1.36-.849-2.42-2.055-3.2-3.62-.77-1.564-1.16-3.42-1.16-5.568s.39-4.004 1.16-5.568c.78-1.564 1.84-2.771 3.2-3.619 1.35-.849 2.89-1.273 4.63-1.273 1.03 0 1.99.149 2.89.447q1.365.448 2.46 1.313 1.095.855 1.83 2.088c.49.815.83 1.747 1.01 2.794m3.99 14v-20.364h6.88c1.59 0 2.89.272 3.91.816 1.03.537 1.78 1.276 2.27 2.217s.74 2.012.74 3.212c0 1.199-.25 2.263-.74 3.191s-1.24 1.658-2.26 2.188c-1.01.524-2.31.785-3.88.785h-5.57v-2.227h5.49c1.08 0 1.96-.159 2.62-.477.67-.318 1.16-.769 1.45-1.352.31-.59.46-1.293.46-2.108s-.15-1.528-.46-2.138c-.3-.61-.79-1.081-1.46-1.412-.67-.338-1.55-.507-2.65-.507h-4.34V128Zm9.58-9.148 5.01 9.148h-2.86l-4.93-9.148zm10.79-11.216V128h-2.46v-20.364zm-2.3-2.068 2.42-4.613h2.75l-3.11 4.613zm6.13 4.256v-2.188h15.28v2.188h-6.41V128h-2.46v-18.176zm21.55-2.188V128h-2.47v-20.364zm21.33 6.364h-2.47a5.1 5.1 0 0 0-2.08-3.222 5.5 5.5 0 0 0-1.7-.835 6.8 6.8 0 0 0-1.94-.278c-1.24 0-2.35.311-3.36.934q-1.485.936-2.37 2.755c-.59 1.213-.88 2.701-.88 4.464s.29 3.252.88 4.465q.885 1.82 2.37 2.754c1.01.623 2.12.935 3.36.935.67 0 1.32-.093 1.94-.279a5.6 5.6 0 0 0 1.7-.825q.78-.556 1.32-1.362c.36-.544.62-1.167.76-1.87h2.47q-.285 1.561-1.02 2.794a7.6 7.6 0 0 1-1.83 2.098 7.9 7.9 0 0 1-2.45 1.303c-.9.298-1.87.447-2.89.447-1.74 0-3.29-.424-4.64-1.272s-2.41-2.055-3.19-3.62-1.16-3.42-1.16-5.568.38-4.004 1.16-5.568 1.84-2.771 3.19-3.619 2.9-1.273 4.64-1.273c1.02 0 1.99.149 2.89.447.91.299 1.73.736 2.45 1.313q1.095.855 1.83 2.088.735 1.223 1.02 2.794m21.16 3.818c0 2.148-.38 4.004-1.16 5.568-.77 1.565-1.84 2.771-3.19 3.62-1.35.848-2.9 1.272-4.63 1.272-1.74 0-3.29-.424-4.64-1.272s-2.41-2.055-3.19-3.62c-.77-1.564-1.16-3.42-1.16-5.568s.39-4.004 1.16-5.568c.78-1.564 1.84-2.771 3.19-3.619s2.9-1.273 4.64-1.273c1.73 0 3.28.424 4.63 1.273 1.35.848 2.42 2.055 3.19 3.619.78 1.564 1.16 3.42 1.16 5.568m-2.38 0c0-1.763-.3-3.251-.89-4.464q-.87-1.82-2.37-2.755c-1-.623-2.11-.934-3.34-.934-1.24 0-2.35.311-3.35.934-1 .624-1.79 1.542-2.38 2.755-.58 1.213-.88 2.701-.88 4.464s.3 3.252.88 4.465c.59 1.213 1.38 2.131 2.38 2.754s2.11.935 3.35.935c1.23 0 2.34-.312 3.34-.935q1.5-.934 2.37-2.754c.59-1.213.89-2.702.89-4.465m8.43 7.398-.16 1.074c-.11.755-.29 1.564-.52 2.426-.22.862-.46 1.674-.7 2.436-.25.762-.45 1.369-.61 1.82h-1.79c.09-.425.2-.985.34-1.681q.21-1.044.42-2.336c.14-.856.26-1.731.35-2.625l.12-1.114zm12.54 2.784v-20.364h6.88c1.6 0 2.9.289 3.92.865 1.02.57 1.77 1.343 2.26 2.317s.74 2.062.74 3.262c0 1.199-.25 2.29-.74 3.271-.48.981-1.23 1.763-2.24 2.346q-1.53.865-3.9.865h-4.93v-2.187h4.85c1.09 0 1.97-.189 2.63-.567.67-.378 1.15-.888 1.45-1.531q.45-.975.45-2.197 0-1.224-.45-2.188c-.3-.643-.79-1.147-1.46-1.511-.66-.372-1.55-.557-2.66-.557h-4.34V128Zm31.14-20.364h2.46v13.483c0 1.392-.33 2.635-.98 3.729q-.975 1.631-2.76 2.575c-1.18.623-2.58.935-4.17.935-1.6 0-2.99-.312-4.18-.935q-1.785-.944-2.76-2.575c-.65-1.094-.98-2.337-.98-3.729v-13.483h2.47v13.284c0 .995.22 1.88.65 2.655a4.7 4.7 0 0 0 1.87 1.82c.82.437 1.79.656 2.93.656 1.13 0 2.1-.219 2.92-.656.82-.444 1.44-1.051 1.87-1.82q.66-1.163.66-2.655zm-6.53-2.068 2.43-4.613h2.74l-3.1 4.613zM1370.8 128v-20.364h7.12q2.115 0 3.51.736c.92.484 1.6 1.137 2.05 1.959.45.815.68 1.72.68 2.714 0 .875-.16 1.598-.47 2.168-.3.57-.71 1.021-1.21 1.352q-.75.498-1.62.736v.199c.62.04 1.25.259 1.88.656.63.398 1.15.968 1.58 1.71.42.743.64 1.651.64 2.725 0 1.021-.24 1.939-.7 2.754-.46.816-1.2 1.462-2.2 1.939s-2.3.716-3.91.716zm2.46-2.188h4.89c1.61 0 2.76-.311 3.43-.934.69-.63 1.03-1.392 1.03-2.287 0-.689-.18-1.326-.53-1.909q-.525-.885-1.5-1.412-.975-.537-2.31-.537h-5.01zm0-9.227h4.58c.74 0 1.41-.146 2-.437a3.55 3.55 0 0 0 1.44-1.233c.35-.531.53-1.154.53-1.87q0-1.341-.93-2.277c-.62-.629-1.61-.944-2.96-.944h-4.66zM1389.01 128v-20.364h2.46v18.176h9.47V128Zm18.21-20.364V128h-2.46v-20.364zm21.33 6.364h-2.46c-.15-.709-.4-1.332-.77-1.869a5.1 5.1 0 0 0-1.31-1.353 5.6 5.6 0 0 0-1.7-.835 6.8 6.8 0 0 0-1.95-.278c-1.23 0-2.35.311-3.35.934-.99.624-1.79 1.542-2.38 2.755q-.87 1.82-.87 4.464t.87 4.465c.59 1.213 1.39 2.131 2.38 2.754 1 .623 2.12.935 3.35.935q1.02 0 1.95-.279a5.7 5.7 0 0 0 1.7-.825 5.2 5.2 0 0 0 1.31-1.362c.37-.544.62-1.167.77-1.87h2.46a8.1 8.1 0 0 1-1.01 2.794 7.6 7.6 0 0 1-1.83 2.098 8 8 0 0 1-2.46 1.303c-.9.298-1.86.447-2.89.447-1.74 0-3.28-.424-4.63-1.272-1.36-.849-2.42-2.055-3.2-3.62-.77-1.564-1.16-3.42-1.16-5.568s.39-4.004 1.16-5.568c.78-1.564 1.84-2.771 3.2-3.619 1.35-.849 2.89-1.273 4.63-1.273 1.03 0 1.99.149 2.89.447q1.365.448 2.46 1.313 1.095.855 1.83 2.088c.49.815.83 1.747 1.01 2.794m21.17 3.818c0 2.148-.39 4.004-1.16 5.568-.78 1.565-1.84 2.771-3.2 3.62-1.35.848-2.89 1.272-4.63 1.272s-3.28-.424-4.63-1.272-2.42-2.055-3.19-3.62q-1.17-2.346-1.17-5.568t1.17-5.568c.77-1.564 1.84-2.771 3.19-3.619s2.89-1.273 4.63-1.273 3.28.424 4.63 1.273c1.36.848 2.42 2.055 3.2 3.619.77 1.564 1.16 3.42 1.16 5.568m-2.39 0c0-1.763-.29-3.251-.88-4.464-.58-1.213-1.38-2.131-2.38-2.755-.99-.623-2.11-.934-3.34-.934s-2.35.311-3.35.934c-.99.624-1.79 1.542-2.38 2.755q-.87 1.82-.87 4.464t.87 4.465c.59 1.213 1.39 2.131 2.38 2.754 1 .623 2.12.935 3.35.935s2.35-.312 3.34-.935c1-.623 1.8-1.541 2.38-2.754.59-1.213.88-2.702.88-4.465m11.23 0c0 2.506-.33 4.813-.98 6.921a21.5 21.5 0 0 1-2.8 5.806h-2.07c.48-.656.92-1.465 1.34-2.426.41-.954.78-2.002 1.09-3.142q.465-1.72.72-3.549.27-1.84.27-3.61 0-2.366-.45-4.802a28 28 0 0 0-1.24-4.525c-.51-1.392-1.09-2.525-1.73-3.4h2.07a21.5 21.5 0 0 1 2.8 5.817c.65 2.101.98 4.404.98 6.91m-224.7 34c0-2.506.32-4.809.97-6.91a21.8 21.8 0 0 1 2.8-5.817h2.07c-.47.656-.92 1.465-1.34 2.426q-.615 1.432-1.08 3.152c-.32 1.14-.56 2.32-.74 3.54-.17 1.22-.26 2.423-.26 3.609 0 1.578.15 3.179.46 4.803.3 1.624.72 3.132 1.23 4.524.52 1.392 1.1 2.525 1.73 3.4h-2.07a21.8 21.8 0 0 1-2.8-5.806c-.65-2.108-.97-4.415-.97-6.921m9.62 10.182v-20.364h6.88c1.6 0 2.91.289 3.92.865 1.02.57 1.78 1.343 2.27 2.317s.73 2.062.73 3.262c0 1.199-.24 2.29-.73 3.271s-1.23 1.763-2.25 2.346q-1.515.865-3.9.865h-4.93v-2.187h4.85q1.65 0 2.64-.567t1.44-1.531c.31-.65.46-1.382.46-2.197s-.15-1.545-.46-2.188c-.3-.643-.78-1.147-1.45-1.511q-1.005-.558-2.67-.557h-4.33V162Zm17.78 0v-20.364h12.29v2.188h-9.83v6.881h9.19v2.187h-9.19v6.92h9.99V162Zm16.73 0v-20.364h6.88c1.59 0 2.9.272 3.92.816 1.02.537 1.78 1.276 2.27 2.217s.73 2.012.73 3.212c0 1.199-.24 2.263-.73 3.191s-1.25 1.658-2.26 2.188c-1.01.524-2.31.785-3.89.785h-5.57v-2.227h5.49c1.09 0 1.96-.159 2.63-.477s1.15-.769 1.45-1.352c.3-.59.46-1.293.46-2.108s-.16-1.528-.46-2.138c-.31-.61-.79-1.081-1.46-1.412-.67-.338-1.56-.507-2.66-.507h-4.33V162Zm9.59-9.148 5.01 9.148h-2.87l-4.93-9.148zm24.71-4.852h-2.47a5.1 5.1 0 0 0-2.08-3.222 5.5 5.5 0 0 0-1.7-.835 6.8 6.8 0 0 0-1.95-.278c-1.23 0-2.35.311-3.35.934q-1.485.936-2.37 2.755c-.59 1.213-.88 2.701-.88 4.464s.29 3.252.88 4.465q.885 1.82 2.37 2.754c1 .623 2.12.935 3.35.935q1.02 0 1.95-.279a5.6 5.6 0 0 0 1.7-.825q.78-.556 1.32-1.362c.36-.544.62-1.167.76-1.87h2.47q-.285 1.561-1.02 2.794a7.6 7.6 0 0 1-1.83 2.098 8 8 0 0 1-2.45 1.303c-.9.298-1.87.447-2.9.447-1.73 0-3.28-.424-4.63-1.272s-2.42-2.055-3.19-3.62c-.78-1.564-1.16-3.42-1.16-5.568s.38-4.004 1.16-5.568c.77-1.564 1.84-2.771 3.19-3.619s2.9-1.273 4.63-1.273c1.03 0 2 .149 2.9.447.91.299 1.72.736 2.45 1.313q1.095.855 1.83 2.088.735 1.223 1.02 2.794m3.98 14v-20.364h12.29v2.188h-9.82v6.881h9.19v2.187h-9.19v6.92h9.98V162Zm16.74 0v-20.364h6.88c1.6 0 2.9.289 3.92.865 1.02.57 1.77 1.343 2.26 2.317s.74 2.062.74 3.262c0 1.199-.25 2.29-.74 3.271-.48.981-1.23 1.763-2.24 2.346q-1.53.865-3.9.865H1335v-2.187h4.85c1.09 0 1.97-.189 2.63-.567q1.005-.567 1.44-1.531c.31-.65.46-1.382.46-2.197s-.15-1.545-.46-2.188c-.29-.643-.78-1.147-1.45-1.511-.67-.372-1.55-.557-2.66-.557h-4.34V162Zm16.66-18.176v-2.188h15.27v2.188h-6.4V162h-2.47v-18.176zm21.54-2.188V162h-2.46v-20.364zm5.78 0 6.05 17.142h.23l6.05-17.142h2.59L1384.43 162h-2.55l-7.47-20.364zm34.31 10.182c0 2.148-.39 4.004-1.16 5.568-.78 1.565-1.84 2.771-3.19 3.62-1.36.848-2.9 1.272-4.64 1.272-1.73 0-3.28-.424-4.63-1.272s-2.42-2.055-3.19-3.62q-1.17-2.346-1.17-5.568t1.17-5.568c.77-1.564 1.84-2.771 3.19-3.619s2.9-1.273 4.63-1.273c1.74 0 3.28.424 4.64 1.273 1.35.848 2.41 2.055 3.19 3.619.77 1.564 1.16 3.42 1.16 5.568m-2.38 0c0-1.763-.3-3.251-.89-4.464-.58-1.213-1.37-2.131-2.38-2.755-.99-.623-2.1-.934-3.34-.934-1.23 0-2.35.311-3.35.934q-1.485.936-2.37 2.755c-.59 1.213-.88 2.701-.88 4.464s.29 3.252.88 4.465q.885 1.82 2.37 2.754c1 .623 2.12.935 3.35.935 1.24 0 2.35-.312 3.34-.935 1.01-.623 1.8-1.541 2.38-2.754.59-1.213.89-2.702.89-4.465m11.22 0c0 2.506-.33 4.813-.98 6.921a21.2 21.2 0 0 1-2.8 5.806h-2.07c.48-.656.93-1.465 1.34-2.426.41-.954.78-2.002 1.09-3.142.31-1.147.55-2.33.73-3.549q.27-1.84.27-3.61c0-1.577-.16-3.178-.46-4.802a29 29 0 0 0-1.23-4.525q-.78-2.088-1.74-3.4h2.07a21.2 21.2 0 0 1 2.8 5.817c.65 2.101.98 4.404.98 6.91M392.775 110V89.636h6.88q2.386 0 3.918.816 1.531.805 2.267 2.217t.736 3.212q0 1.799-.736 3.191t-2.257 2.188q-1.521.785-3.888.785h-5.568v-2.227h5.488q1.632 0 2.625-.477 1.005-.477 1.452-1.352.458-.885.458-2.108t-.458-2.138q-.457-.915-1.462-1.412-1.004-.507-2.654-.507h-4.336V110Zm9.585-9.148 5.011 9.148h-2.864l-4.931-9.148zm8.325 9.148V89.636h12.289v2.188h-9.823v6.881h9.187v2.187h-9.187v6.92h9.983V110Zm17.569 0h-2.585l7.477-20.364h2.546L443.169 110h-2.585l-6.085-17.142h-.16zm.955-7.955h10.42v2.188h-10.42zM446.341 110V89.636h2.466v18.176h9.466V110Zm18.216-20.364V110h-2.466V89.636ZM468.825 110v-1.79l10.977-16.386h-11.096v-2.188h14.039v1.79l-10.977 16.386h11.097V110Zm19.011 0h-2.585l7.477-20.364h2.546L502.751 110h-2.585l-6.085-17.142h-.159zm.955-7.955h10.42v2.188h-10.42zM521.352 96h-2.466a5.1 5.1 0 0 0-.765-1.869 5.1 5.1 0 0 0-1.313-1.353 5.6 5.6 0 0 0-1.7-.835 6.8 6.8 0 0 0-1.949-.278q-1.85 0-3.351.934-1.491.936-2.376 2.755-.875 1.82-.875 4.464t.875 4.465q.885 1.82 2.376 2.754 1.501.935 3.351.935 1.014 0 1.949-.279a5.7 5.7 0 0 0 1.7-.825 5.2 5.2 0 0 0 1.313-1.362q.547-.816.765-1.87h2.466q-.277 1.561-1.014 2.794a7.6 7.6 0 0 1-1.829 2.098 8 8 0 0 1-2.456 1.303 9.2 9.2 0 0 1-2.894.447q-2.605 0-4.633-1.272-2.03-1.273-3.192-3.62-1.164-2.346-1.164-5.568t1.164-5.568q1.162-2.346 3.192-3.619 2.028-1.273 4.633-1.273 1.542 0 2.894.447a7.9 7.9 0 0 1 2.456 1.313 7.5 7.5 0 0 1 1.829 2.088q.736 1.223 1.014 2.794m6.451-6.364V110h-2.466V89.636Zm22.126 10.182q0 3.222-1.163 5.568-1.164 2.347-3.192 3.62-2.028 1.272-4.634 1.272-2.604 0-4.633-1.272t-3.192-3.62q-1.163-2.346-1.163-5.568t1.163-5.568 3.192-3.619 4.633-1.273q2.606 0 4.634 1.273t3.192 3.619 1.163 5.568m-2.386 0q0-2.645-.885-4.464-.876-1.82-2.377-2.755-1.491-.934-3.341-.934t-3.351.934q-1.491.936-2.376 2.755-.875 1.82-.875 4.464t.875 4.465q.885 1.82 2.376 2.754 1.501.935 3.351.935t3.341-.935q1.501-.934 2.377-2.754.885-1.82.885-4.465m-7.677-12.25 2.427-4.613h2.744l-3.102 4.613zm30.357 2.068V110h-2.386L556.74 94.011h-.199V110h-2.466V89.636h2.387l11.136 16.029h.199V89.636Zm390.461 2.188v-2.188h15.273v2.188h-6.403V110h-2.466V91.824ZM979.763 110V89.636h6.88q2.387 0 3.917.816c1.02.537 1.78 1.276 2.27 2.217s.73 2.012.73 3.212c0 1.199-.24 2.263-.73 3.191s-1.24 1.658-2.26 2.188q-1.52.785-3.887.785h-5.568v-2.227h5.489q1.63 0 2.625-.477 1.002-.477 1.451-1.352c.31-.59.46-1.293.46-2.108s-.15-1.528-.46-2.138c-.3-.61-.792-1.081-1.461-1.412q-1.005-.507-2.655-.507h-4.335V110Zm9.585-9.148L994.36 110h-2.86l-4.936-9.148zM998.51 110h-2.59l7.48-20.364h2.55l7.47 20.364h-2.58l-6.09-17.142h-.16zm.95-7.955h10.42v2.188h-10.42zm33.28-12.409V110h-2.38l-11.1-15.989h-.2V110h-2.47V89.636h2.39l11.14 16.029h.2V89.636Zm16.07 5.091c-.12-1.007-.6-1.789-1.45-2.346q-1.275-.836-3.12-.836-1.35 0-2.37.438c-.67.292-1.19.693-1.57 1.203-.37.51-.55 1.091-.55 1.74 0 .544.12 1.011.38 1.402q.405.577 1.02.965.615.377 1.29.626c.45.159.86.288 1.24.388l2.07.557q.795.209 1.77.576c.66.246 1.28.58 1.88 1.005.6.417 1.1.954 1.49 1.61s.59 1.462.59 2.417q0 1.65-.87 2.983c-.57.888-1.4 1.594-2.5 2.117q-1.65.786-3.99.786c-1.46 0-2.72-.235-3.79-.706-1.06-.471-1.89-1.127-2.5-1.969s-.95-1.819-1.03-2.933h2.55c.06.769.32 1.405.77 1.909.46.497 1.04.868 1.73 1.114.71.238 1.46.358 2.27.358.94 0 1.79-.153 2.54-.458.74-.311 1.34-.742 1.78-1.292.43-.557.65-1.207.65-1.949q0-1.015-.57-1.651c-.37-.424-.87-.769-1.49-1.034-.61-.265-1.28-.497-2-.696l-2.5-.716q-2.385-.686-3.78-1.959c-.93-.848-1.39-1.958-1.39-3.331 0-1.14.31-2.134.92-2.983.63-.855 1.46-1.517 2.51-1.988 1.05-.477 2.23-.716 3.53-.716 1.31 0 2.48.235 3.5.706q1.53.696 2.43 1.909c.6.809.92 1.727.95 2.754zm9.19-5.091V110h-2.47V89.636ZM1079.33 96h-2.47a5.1 5.1 0 0 0-2.08-3.222 5.5 5.5 0 0 0-1.7-.835 6.8 6.8 0 0 0-1.94-.278c-1.24 0-2.35.311-3.36.934q-1.485.936-2.37 2.755c-.58 1.213-.88 2.701-.88 4.464s.3 3.252.88 4.465q.885 1.82 2.37 2.754c1.01.623 2.12.935 3.36.935.67 0 1.32-.093 1.94-.279a5.6 5.6 0 0 0 1.7-.825q.78-.556 1.32-1.362c.36-.544.62-1.167.76-1.87h2.47c-.19 1.041-.52 1.972-1.02 2.794a7.7 7.7 0 0 1-1.82 2.098 8 8 0 0 1-2.46 1.303c-.9.298-1.87.447-2.89.447-1.74 0-3.29-.424-4.64-1.272s-2.41-2.055-3.19-3.62-1.16-3.42-1.16-5.568.38-4.004 1.16-5.568 1.84-2.771 3.19-3.619 2.9-1.273 4.64-1.273c1.02 0 1.99.149 2.89.447q1.365.448 2.46 1.313c.72.57 1.33 1.266 1.82 2.088.5.815.83 1.747 1.02 2.794m6.45-6.364V110h-2.47V89.636Zm22.13 10.182q0 3.222-1.17 5.568c-.77 1.565-1.84 2.771-3.19 3.62-1.35.848-2.9 1.272-4.63 1.272-1.74 0-3.28-.424-4.64-1.272-1.35-.849-2.41-2.055-3.19-3.62-.77-1.564-1.16-3.42-1.16-5.568s.39-4.004 1.16-5.568c.78-1.564 1.84-2.771 3.19-3.619 1.36-.849 2.9-1.273 4.64-1.273 1.73 0 3.28.424 4.63 1.273 1.35.848 2.42 2.055 3.19 3.619q1.17 2.346 1.17 5.568m-2.39 0c0-1.763-.3-3.251-.89-4.464q-.87-1.82-2.37-2.755c-1-.623-2.11-.934-3.34-.934-1.24 0-2.35.311-3.35.934-1 .624-1.79 1.542-2.38 2.755-.58 1.213-.88 2.701-.88 4.464s.3 3.252.88 4.465c.59 1.213 1.38 2.131 2.38 2.754s2.11.935 3.35.935c1.23 0 2.34-.312 3.34-.935q1.5-.934 2.37-2.754c.59-1.213.89-2.702.89-4.465m-7.68-12.25 2.43-4.613h2.74l-3.1 4.613zm30.36 2.068V110h-2.39l-11.09-15.989h-.2V110h-2.47V89.636h2.39l11.13 16.029h.2V89.636ZM645.997 258h-2.466a5.1 5.1 0 0 0-.766-1.869 5.1 5.1 0 0 0-1.312-1.353 5.6 5.6 0 0 0-1.701-.835 6.8 6.8 0 0 0-1.948-.278q-1.85 0-3.351.934-1.492.936-2.377 2.755-.875 1.82-.875 4.464t.875 4.465q.885 1.82 2.377 2.754 1.502.935 3.351.935 1.014 0 1.948-.279a5.7 5.7 0 0 0 1.701-.825 5.22 5.22 0 0 0 2.078-3.232h2.466q-.279 1.561-1.014 2.794a7.6 7.6 0 0 1-1.83 2.098 8 8 0 0 1-2.456 1.303 9.2 9.2 0 0 1-2.893.447q-2.606 0-4.634-1.272t-3.192-3.62q-1.163-2.346-1.163-5.568t1.163-5.568 3.192-3.619 4.634-1.273a9.2 9.2 0 0 1 2.893.447 7.9 7.9 0 0 1 2.456 1.313 7.5 7.5 0 0 1 1.83 2.088q.735 1.223 1.014 2.794m3.985 14v-20.364h6.88q2.386 0 3.918.816 1.531.805 2.267 2.217t.736 3.212q0 1.799-.736 3.191-.736 1.393-2.257 2.188-1.521.785-3.888.785h-5.568v-2.227h5.488q1.632 0 2.625-.477 1.005-.477 1.452-1.352.458-.885.458-2.108t-.458-2.138-1.461-1.412q-1.005-.507-2.655-.507h-4.336V272Zm9.585-9.148 5.011 9.148h-2.864l-4.931-9.148zm10.791-11.216V272h-2.466v-20.364zm-2.307-2.068 2.426-4.613h2.744l-3.102 4.613zm6.137 4.256v-2.188h15.273v2.188h-6.403V272h-2.466v-18.176zm21.545-2.188V272h-2.466v-20.364zm21.33 6.364h-2.466a5.14 5.14 0 0 0-2.078-3.222 5.6 5.6 0 0 0-1.7-.835 6.8 6.8 0 0 0-1.949-.278q-1.85 0-3.351.934-1.491.936-2.376 2.755-.875 1.82-.875 4.464t.875 4.465q.885 1.82 2.376 2.754 1.502.935 3.351.935 1.014 0 1.949-.279a5.7 5.7 0 0 0 1.7-.825 5.2 5.2 0 0 0 1.313-1.362 5.2 5.2 0 0 0 .765-1.87h2.466q-.278 1.561-1.014 2.794a7.6 7.6 0 0 1-1.83 2.098 8 8 0 0 1-2.456 1.303 9.2 9.2 0 0 1-2.893.447q-2.605 0-4.633-1.272-2.03-1.273-3.192-3.62-1.164-2.346-1.164-5.568t1.164-5.568 3.192-3.619 4.633-1.273a9.2 9.2 0 0 1 2.893.447 7.9 7.9 0 0 1 2.456 1.313 7.5 7.5 0 0 1 1.83 2.088q.736 1.223 1.014 2.794m4.82 14h-2.585l7.477-20.364h2.546L736.798 272h-2.585l-6.086-17.142h-.159zm.955-7.955h10.42v2.188h-10.42zm20.314 5.171-.159 1.074a22 22 0 0 1-.518 2.426q-.337 1.293-.705 2.436a76 76 0 0 1-.607 1.82h-1.79l.338-1.681q.209-1.044.418-2.336.219-1.284.358-2.625l.119-1.114zM772.079 258h-2.466a5.1 5.1 0 0 0-.766-1.869 5.1 5.1 0 0 0-1.312-1.353 5.6 5.6 0 0 0-1.7-.835 6.8 6.8 0 0 0-1.949-.278q-1.85 0-3.351.934-1.492.936-2.377 2.755-.875 1.82-.875 4.464t.875 4.465q.885 1.82 2.377 2.754 1.501.935 3.351.935 1.014 0 1.949-.279a5.7 5.7 0 0 0 1.7-.825 5.22 5.22 0 0 0 2.078-3.232h2.466q-.279 1.561-1.014 2.794a7.6 7.6 0 0 1-1.83 2.098 8 8 0 0 1-2.456 1.303 9.2 9.2 0 0 1-2.893.447q-2.606 0-4.634-1.272t-3.192-3.62q-1.163-2.346-1.163-5.568t1.163-5.568 3.192-3.619 4.634-1.273a9.2 9.2 0 0 1 2.893.447 7.9 7.9 0 0 1 2.456 1.313 7.5 7.5 0 0 1 1.83 2.088q.735 1.223 1.014 2.794m21.166 3.818q0 3.222-1.163 5.568-1.163 2.347-3.192 3.62-2.029 1.272-4.633 1.272-2.606 0-4.634-1.272t-3.192-3.62q-1.163-2.346-1.163-5.568t1.163-5.568 3.192-3.619 4.634-1.273 4.633 1.273 3.192 3.619 1.163 5.568m-2.386 0q0-2.644-.885-4.464-.875-1.82-2.376-2.755-1.492-.934-3.341-.934t-3.351.934q-1.492.936-2.377 2.755-.875 1.82-.875 4.464t.875 4.465q.886 1.82 2.377 2.754 1.501.935 3.351.935 1.849 0 3.341-.935 1.501-.935 2.376-2.754.885-1.82.885-4.465m22.68-10.182V272h-2.386l-11.097-15.989h-.198V272h-2.466v-20.364h2.386l11.136 16.029h.199v-16.029zm16.071 5.091q-.178-1.51-1.452-2.346-1.272-.836-3.122-.836-1.352 0-2.366.438-1.004.438-1.571 1.203a2.9 2.9 0 0 0-.557 1.74q0 .816.388 1.402.398.577 1.014.965.616.377 1.293.626.676.238 1.242.388l2.069.557q.795.209 1.769.576.985.368 1.88 1.005.904.626 1.491 1.61t.587 2.417q0 1.65-.865 2.983-.856 1.332-2.506 2.117-1.641.786-3.987.786-2.187 0-3.788-.706-1.591-.706-2.506-1.969-.905-1.262-1.024-2.933h2.545q.1 1.153.776 1.909.686.745 1.73 1.114a7 7 0 0 0 2.267.358q1.412 0 2.535-.458 1.124-.467 1.78-1.292.656-.836.656-1.949 0-1.014-.566-1.651-.567-.636-1.492-1.034a16 16 0 0 0-1.998-.696l-2.506-.716q-2.386-.686-3.778-1.959-1.392-1.272-1.392-3.331 0-1.71.924-2.983.935-1.282 2.506-1.988 1.581-.716 3.53-.716 1.968 0 3.5.706 1.531.696 2.426 1.909.905 1.214.954 2.754zm20.083-5.091h2.466v13.483q0 2.088-.985 3.729-.974 1.631-2.754 2.575-1.779.935-4.176.935t-4.176-.935q-1.78-.944-2.764-2.575-.975-1.641-.975-3.729v-13.483h2.466v13.284q0 1.493.656 2.655a4.7 4.7 0 0 0 1.87 1.82q1.222.656 2.923.656 1.7 0 2.923-.656 1.224-.666 1.87-1.82.656-1.163.656-2.655zm7.39 0h2.943l6.921 16.904h.238l6.921-16.904h2.943V272h-2.307v-15.472h-.199L868.18 272h-2.228l-6.363-15.472h-.199V272h-2.307zm42.092 10.182q0 3.222-1.163 5.568-1.164 2.347-3.192 3.62-2.028 1.272-4.634 1.272-2.604 0-4.633-1.272t-3.192-3.62q-1.163-2.346-1.163-5.568t1.163-5.568 3.192-3.619 4.633-1.273q2.606 0 4.634 1.273t3.192 3.619 1.163 5.568m-2.386 0q0-2.644-.885-4.464-.876-1.82-2.377-2.755-1.491-.934-3.341-.934-1.849 0-3.35.934-1.492.936-2.377 2.755-.875 1.82-.875 4.464t.875 4.465q.885 1.82 2.377 2.754 1.501.935 3.35.935t3.341-.935q1.501-.935 2.377-2.754.885-1.82.885-4.465"/><path stroke="#000" stroke-width="2" d="M1327 184v96"/><path fill="#000" d="M200.707 184.293a1 1 0 0 0-1.414 0l-6.364 6.364a.999.999 0 1 0 1.414 1.414l5.657-5.657 5.657 5.657a.999.999 0 1 0 1.414-1.414zM199 185v95h2v-95z"/><path stroke="#000" stroke-width="2" d="M1327 279H200"/></svg>